<svg width="249" height="70" viewBox="0 0 249 70" fill="none" xmlns="http://www.w3.org/2000/svg">
<path d="M52.88 59.28L51.0155 60.0038L51.0192 60.013L52.88 59.28ZM57.92 64.4H59.92V62.5211L58.0448 62.4039L57.92 64.4ZM57.92 66L57.8201 67.9975L59.92 68.1025V66H57.92ZM33.6 66H31.6V68.1236L33.7198 67.9964L33.6 66ZM33.6 64.4L33.4949 62.4028L31.6 62.5025V64.4H33.6ZM37.92 63.68L38.7216 65.5123L38.7686 65.4918L38.8144 65.4689L37.92 63.68ZM38.24 57.68L36.3618 58.3672L36.372 58.3951L36.383 58.4228L38.24 57.68ZM33.44 44.56L35.3182 43.8728L34.8379 42.56H33.44V44.56ZM16 44.56V42.56H14.6163L14.1285 43.8548L16 44.56ZM13.92 50.08L15.784 50.8049L15.7878 50.7951L15.7915 50.7852L13.92 50.08ZM13.44 63.12L12.3133 64.7725L12.356 64.8015L12.4001 64.8284L13.44 63.12ZM18.8 64.4H20.8V62.4888L18.8908 62.4021L18.8 64.4ZM18.8 66L18.7119 67.9981L20.8 68.0902V66H18.8ZM2.8 66H0.8V68.21L2.99901 67.9901L2.8 66ZM2.8 64.4L2.4387 62.4329L0.8 62.7339V64.4H2.8ZM9.68 56L7.81652 55.2737L7.81381 55.2807L9.68 56ZM27.92 9.2L28.1011 7.20821L26.6028 7.07201L26.0565 8.47372L27.92 9.2ZM33.44 9.2L35.3045 8.47626L34.7542 7.05861L33.241 7.20992L33.44 9.2ZM32.88 42.96V44.96H35.7435L34.7578 42.2715L32.88 42.96ZM24.96 21.36L26.8378 20.6715L25.0061 15.6761L23.0937 20.6411L24.96 21.36ZM16.64 42.96L14.7737 42.2411L13.7264 44.96H16.64V42.96ZM51.0192 60.013C51.7695 61.9176 52.7159 63.5248 53.9568 64.6197L56.6032 61.6203C56.0308 61.1152 55.3772 60.1624 54.7408 58.547L51.0192 60.013ZM53.9568 64.6197C55.0619 65.5948 56.3473 66.3056 57.7952 66.3961L58.0448 62.4039C57.786 62.3877 57.3114 62.2452 56.6032 61.6203L53.9568 64.6197ZM55.92 64.4V66H59.92V64.4H55.92ZM58.0199 64.0025C54.7741 63.8402 50.6845 63.76 45.76 63.76V67.76C50.6488 67.76 54.6659 67.8398 57.8201 67.9975L58.0199 64.0025ZM45.76 63.76C40.312 63.76 36.2094 63.8398 33.4802 64.0036L33.7198 67.9964C36.324 67.8402 40.328 67.76 45.76 67.76V63.76ZM35.6 66V64.4H31.6V66H35.6ZM33.7051 66.3972C35.7561 66.2893 37.5118 66.0416 38.7216 65.5123L37.1184 61.8477C36.6216 62.065 35.4972 62.2974 33.4949 62.4028L33.7051 66.3972ZM38.8144 65.4689C39.5352 65.1084 40.1651 64.5745 40.6006 63.8396C41.0319 63.1118 41.2 62.3098 41.2 61.52H37.2C37.2 61.6335 37.188 61.7061 37.178 61.747C37.1684 61.7859 37.1597 61.7999 37.1594 61.8004C37.1588 61.8015 37.1582 61.8024 37.1571 61.8037C37.1559 61.8051 37.1525 61.809 37.1455 61.8153C37.1319 61.8275 37.0969 61.8555 37.0256 61.8911L38.8144 65.4689ZM41.2 61.52C41.2 60.1781 40.7684 58.6159 40.097 56.9372L36.383 58.4228C36.9916 59.9441 37.2 60.9419 37.2 61.52H41.2ZM40.1182 56.9928L35.3182 43.8728L31.5618 45.2472L36.3618 58.3672L40.1182 56.9928ZM33.44 42.56H16V46.56H33.44V42.56ZM14.1285 43.8548L12.0485 49.3748L15.7915 50.7852L17.8715 45.2652L14.1285 43.8548ZM12.056 49.3551C10.5433 53.2448 9.68 56.4923 9.68 58.96H13.68C13.68 57.2677 14.31 54.5952 15.784 50.8049L12.056 49.3551ZM9.68 58.96C9.68 61.3147 10.3971 63.4659 12.3133 64.7725L14.5667 61.4675C14.1363 61.1741 13.68 60.552 13.68 58.96H9.68ZM12.4001 64.8284C14.0413 65.8274 16.2168 66.2846 18.7092 66.3979L18.8908 62.4021C16.6898 62.302 15.292 61.906 14.4799 61.4116L12.4001 64.8284ZM16.8 64.4V66H20.8V64.4H16.8ZM18.8882 64.0019C15.2381 63.8409 11.9015 63.76 8.88 63.76V67.76C11.8318 67.76 15.1086 67.8391 18.7119 67.9981L18.8882 64.0019ZM8.88 63.76C6.39081 63.76 4.29183 63.8408 2.60099 64.0099L2.99901 67.9901C4.50817 67.8392 6.46252 67.76 8.88 67.76V63.76ZM4.8 66V64.4H0.8V66H4.8ZM3.1613 66.3671C5.07845 66.015 6.68932 64.8408 8.02726 63.2073C9.35925 61.581 10.5183 59.3863 11.5462 56.7193L7.81381 55.2807C6.86839 57.7337 5.89409 59.499 4.93274 60.6727C3.97734 61.8392 3.13489 62.305 2.4387 62.4329L3.1613 66.3671ZM11.5435 56.7263L29.7835 9.92627L26.0565 8.47372L7.81653 55.2737L11.5435 56.7263ZM27.7389 11.1918C28.4221 11.2539 29.4326 11.28 30.72 11.28V7.27999C29.4474 7.27999 28.5912 7.25277 28.1011 7.20821L27.7389 11.1918ZM30.72 11.28C32.0007 11.28 32.9964 11.2543 33.639 11.1901L33.241 7.20992C32.8169 7.25233 31.9993 7.27999 30.72 7.27999V11.28ZM31.5755 9.92374L51.0155 60.0037L54.7445 58.5563L35.3045 8.47626L31.5755 9.92374ZM34.7578 42.2715L26.8378 20.6715L23.0822 22.0485L31.0023 43.6485L34.7578 42.2715ZM23.0937 20.6411L14.7737 42.2411L18.5063 43.6789L26.8263 22.0789L23.0937 20.6411ZM16.64 44.96H32.88V40.96H16.64V44.96ZM101.999 28.88L100.397 30.0762L100.401 30.082L100.405 30.0877L101.999 28.88ZM100.879 61.6L102.346 62.9601L102.351 62.9548L102.355 62.9495L100.879 61.6ZM78.7194 64.32L79.9819 62.7689L79.5021 62.3783L78.8855 62.3269L78.7194 64.32ZM72.9594 64.96L72.3749 63.0473L72.9594 64.96ZM68.3994 67.28L67.3704 68.995L68.6065 69.7366L69.701 68.7985L68.3994 67.28ZM67.1994 66.56L65.2734 66.0207L64.8621 67.49L66.1704 68.275L67.1994 66.56ZM66.5594 7.68L64.8953 8.7894L64.9132 8.81623L64.9319 8.84247L66.5594 7.68ZM62.6394 6H60.6394V8H62.6394V6ZM62.6394 4.32L62.832 2.3293L60.6394 2.1171V4.32H62.6394ZM79.2794 3.43999H81.2794V0.909882L78.8176 1.49403L79.2794 3.43999ZM79.2794 31.12H77.2794L81.0988 31.9506L79.2794 31.12ZM84.1594 25.52L85.1884 27.235L85.204 27.2256L85.2194 27.216L84.1594 25.52ZM91.7594 60.48L89.9257 59.6815L91.7594 60.48ZM92.0794 31.28L90.2393 32.0637L90.2447 32.0762L92.0794 31.28ZM82.0794 28.88L83.4045 30.378L83.4081 30.3748L82.0794 28.88ZM79.2794 33.92L77.3282 33.481L77.2794 33.6978V33.92H79.2794ZM79.2794 63.28H77.2794V64.2278L78.0129 64.8279L79.2794 63.28ZM91.5194 25.52C95.1847 25.52 98.0931 26.9896 100.397 30.0762L103.602 27.6838C100.572 23.6237 96.494 21.52 91.5194 21.52V25.52ZM100.405 30.0877C102.703 33.1207 103.999 37.7408 103.999 44.24H107.999C107.999 37.2992 106.629 31.6793 103.594 27.6723L100.405 30.0877ZM103.999 44.24C103.999 51.8449 102.336 57.0429 99.4033 60.2505L102.355 62.9495C106.25 58.6904 107.999 52.3151 107.999 44.24H103.999ZM99.413 60.2399C96.4081 63.4796 92.5551 65.12 87.6794 65.12V69.12C93.577 69.12 98.524 67.0804 102.346 62.9601L99.413 60.2399ZM87.6794 65.12C84.3438 65.12 81.8382 64.2798 79.9819 62.7689L77.4568 65.8711C80.1872 68.0935 83.6549 69.12 87.6794 69.12V65.12ZM78.8855 62.3269C76.7019 62.1449 74.5274 62.3896 72.3749 63.0473L73.5438 66.8727C75.2314 66.3571 76.8969 66.1751 78.5533 66.3131L78.8855 62.3269ZM72.3749 63.0473C70.2809 63.6872 68.4881 64.5698 67.0978 65.7615L69.701 68.7985C70.5506 68.0702 71.7979 67.4062 73.5438 66.8727L72.3749 63.0473ZM69.4284 65.565L68.2284 64.845L66.1704 68.275L67.3704 68.995L69.4284 65.565ZM69.1253 67.0993C69.5562 65.5603 69.7594 63.8815 69.7594 62.08H65.7594C65.7594 63.5852 65.5892 64.893 65.2734 66.0207L69.1253 67.0993ZM69.7594 62.08V13.04H65.7594V62.08H69.7594ZM69.7594 13.04C69.7594 10.4564 69.3547 8.15255 68.1868 6.51752L64.9319 8.84247C65.364 9.44745 65.7594 10.7169 65.7594 13.04H69.7594ZM68.2235 6.5706C66.9726 4.69436 64.8923 4 62.6394 4V8C64.1198 8 64.6528 8.42564 64.8953 8.7894L68.2235 6.5706ZM64.6394 6V4.32H60.6394V6H64.6394ZM62.4467 6.3107C64.1638 6.47687 65.8814 6.56 67.5994 6.56V2.56C66.0107 2.56 64.4216 2.48313 62.832 2.3293L62.4467 6.3107ZM67.5994 6.56C72.3338 6.56 76.3935 6.18032 79.7411 5.38596L78.8176 1.49403C75.8719 2.19301 72.145 2.56 67.5994 2.56V6.56ZM77.2794 3.43999V31.12H81.2794V3.43999H77.2794ZM81.0988 31.9506C82.0656 29.8328 83.4312 28.2893 85.1884 27.235L83.1304 23.805C80.6209 25.3107 78.7332 27.5006 77.46 30.2894L81.0988 31.9506ZM85.2194 27.216C87.0028 26.1014 89.0812 25.52 91.5194 25.52V21.52C88.4109 21.52 85.5826 22.272 83.0994 23.824L85.2194 27.216ZM85.1994 67.44C87.069 67.44 88.7799 66.9035 90.2456 65.7953C91.6862 64.7061 92.7778 63.1506 93.593 61.2785L89.9257 59.6815C89.3009 61.1161 88.5792 62.0406 87.8332 62.6047C87.1122 63.1498 86.2631 63.44 85.1994 63.44V67.44ZM93.593 61.2785C95.2012 57.5857 95.9194 52.209 95.9194 45.36H91.9194C91.9194 52.0576 91.1975 56.761 89.9257 59.6815L93.593 61.2785ZM95.9194 45.36C95.9194 38.7662 95.3162 33.7148 93.9141 30.4838L90.2447 32.0762C91.2959 34.4986 91.9194 38.8338 91.9194 45.36H95.9194ZM93.9194 30.4963C92.5155 27.2001 90.1938 24.96 86.7994 24.96V28.96C87.9916 28.96 89.1899 29.5999 90.2393 32.0637L93.9194 30.4963ZM86.7994 24.96C84.5392 24.96 82.5062 25.8247 80.7506 27.3852L83.4081 30.3748C84.5326 29.3753 85.6462 28.96 86.7994 28.96V24.96ZM80.7542 27.382C78.9988 28.9349 77.8832 31.014 77.3282 33.481L81.2306 34.359C81.6355 32.5593 82.3866 31.2785 83.4045 30.378L80.7542 27.382ZM77.2794 33.92V63.28H81.2794V33.92H77.2794ZM78.0129 64.8279C80.1148 66.5476 82.5314 67.44 85.1994 67.44V63.44C83.494 63.44 81.964 62.8924 80.5459 61.7321L78.0129 64.8279ZM150.794 28.8L149.369 30.2034L149.375 30.2088L149.38 30.2142L150.794 28.8ZM150.794 61.92L149.38 60.5058L150.794 61.92ZM121.994 61.92L120.58 63.3342L120.586 63.3396L120.591 63.345L121.994 61.92ZM121.994 28.8L120.58 27.3858L121.994 28.8ZM130.874 30.16L129.026 29.397L129.023 29.4045L129.019 29.4121L130.874 30.16ZM130.874 60.56L129.019 61.3079L129.025 61.3207L129.03 61.3335L130.874 60.56ZM141.914 60.64L143.765 61.3985L143.769 61.3879L141.914 60.64ZM141.834 30.08L139.979 30.8279L139.985 30.8407L139.99 30.8535L141.834 30.08ZM136.394 25.52C142.129 25.52 146.365 27.1529 149.369 30.2034L152.219 27.3966C148.29 23.4071 142.926 21.52 136.394 21.52V25.52ZM149.38 30.2142C152.311 33.1448 153.994 38.0349 153.994 45.36H157.994C157.994 37.5384 156.211 31.3885 152.209 27.3858L149.38 30.2142ZM153.994 45.36C153.994 52.6851 152.311 57.5752 149.38 60.5058L152.209 63.3342C156.211 59.3315 157.994 53.1816 157.994 45.36H153.994ZM149.38 60.5058C146.378 63.5085 142.138 65.12 136.394 65.12V69.12C142.918 69.12 148.278 67.2649 152.209 63.3342L149.38 60.5058ZM136.394 65.12C130.711 65.12 126.461 63.512 123.398 60.495L120.591 63.345C124.568 67.2613 129.918 69.12 136.394 69.12V65.12ZM123.409 60.5058C120.478 57.5752 118.794 52.6851 118.794 45.36H114.794C114.794 53.1816 116.577 59.3315 120.58 63.3342L123.409 60.5058ZM118.794 45.36C118.794 38.0349 120.478 33.1448 123.409 30.2142L120.58 27.3858C116.577 31.3885 114.794 37.5384 114.794 45.36H118.794ZM123.409 30.2142C126.474 27.1493 130.72 25.52 136.394 25.52V21.52C129.909 21.52 124.555 23.4107 120.58 27.3858L123.409 30.2142ZM136.394 23.12C132.865 23.12 130.517 25.7824 129.026 29.397L132.723 30.923C134.005 27.8176 135.337 27.12 136.394 27.12V23.12ZM129.019 29.4121C127.538 33.0856 126.874 38.468 126.874 45.36H130.874C130.874 38.5987 131.544 33.8478 132.729 30.9079L129.019 29.4121ZM126.874 45.36C126.874 52.252 127.538 57.6344 129.019 61.3079L132.729 59.8121C131.544 56.8722 130.874 52.1213 130.874 45.36H126.874ZM129.03 61.3335C130.53 64.9093 132.883 67.52 136.394 67.52V63.52C135.319 63.52 133.993 62.8241 132.719 59.7865L129.03 61.3335ZM136.394 67.52C139.936 67.52 142.301 64.9696 143.765 61.3984L140.064 59.8816C138.861 62.8171 137.546 63.52 136.394 63.52V67.52ZM143.769 61.3879C145.251 57.7133 145.914 52.3029 145.914 45.36H141.914C141.914 52.1771 141.244 56.9534 140.059 59.8921L143.769 61.3879ZM145.914 45.36C145.914 38.4134 145.224 32.9918 143.679 29.3065L139.99 30.8535C141.218 33.7816 141.914 38.5466 141.914 45.36H145.914ZM143.689 29.3321C142.244 25.7482 139.92 23.12 136.394 23.12V27.12C137.456 27.12 138.758 27.7985 139.979 30.8279L143.689 29.3321ZM206.749 62.64L205.085 63.7494L205.103 63.7762L205.121 63.8025L206.749 62.64ZM210.749 64.32H212.749V62.32H210.749V64.32ZM210.749 66L210.556 67.9907L212.749 68.2029V66H210.749ZM194.109 66.88H192.109V69.4101L194.57 68.826L194.109 66.88ZM194.109 59.68H196.109L192.316 58.7933L194.109 59.68ZM172.509 64L170.979 65.2883L170.99 65.3014L171.001 65.3143L172.509 64ZM170.589 60.08L168.638 60.5205L168.646 60.5581L168.656 60.5953L170.589 60.08ZM168.829 28L167.165 29.1094L167.183 29.1362L167.201 29.1625L168.829 28ZM164.909 26.32H162.909V28.32H164.909V26.32ZM164.909 24.64L165.101 22.6493L162.909 22.4371V24.64H164.909ZM181.549 23.76H183.549V21.2299L181.087 21.814L181.549 23.76ZM182.509 61.92L180.772 62.9123L180.79 62.9428L180.808 62.9727L182.509 61.92ZM191.789 60.96L190.267 59.6621L190.264 59.666L191.789 60.96ZM192.909 28L191.245 29.1094L191.263 29.1362L191.281 29.1625L192.909 28ZM188.989 26.32H186.989V28.32H188.989V26.32ZM188.989 24.64L189.175 22.6487L186.989 22.4437V24.64H188.989ZM205.629 23.76H207.629V21.2299L205.167 21.814L205.629 23.76ZM203.629 57.28C203.629 59.8477 204.003 62.1267 205.085 63.7494L208.413 61.5306C208.001 60.9133 207.629 59.619 207.629 57.28H203.629ZM205.121 63.8025C206.422 65.6231 208.486 66.32 210.749 66.32V62.32C209.278 62.32 208.676 61.8969 208.376 61.4775L205.121 63.8025ZM208.749 64.32V66H212.749V64.32H208.749ZM210.941 64.0093C209.224 63.8431 207.507 63.76 205.789 63.76V67.76C207.377 67.76 208.966 67.8369 210.556 67.9907L210.941 64.0093ZM205.789 63.76C201.054 63.76 196.995 64.1397 193.647 64.934L194.57 68.826C197.516 68.127 201.243 67.76 205.789 67.76V63.76ZM196.109 66.88V59.68H192.109V66.88H196.109ZM192.316 58.7933C191.243 60.9622 189.814 62.508 188.048 63.5282C186.27 64.5554 184.027 65.12 181.229 65.12V69.12C184.564 69.12 187.534 68.4446 190.049 66.9918C192.576 65.532 194.521 63.3578 195.901 60.5667L192.316 58.7933ZM181.229 65.12C177.541 65.12 175.304 64.1632 174.016 62.6857L171.001 65.3143C173.34 67.9968 176.917 69.12 181.229 69.12V65.12ZM174.039 62.7117C173.416 61.9723 172.891 60.9497 172.521 59.5647L168.656 60.5953C169.14 62.4103 169.895 64.0011 170.979 65.2883L174.039 62.7117ZM172.54 59.6395C172.212 58.1885 172.029 56.1925 172.029 53.6H168.029C168.029 56.3408 168.219 58.6649 168.638 60.5205L172.54 59.6395ZM172.029 53.6V33.36H168.029V53.6H172.029ZM172.029 33.36C172.029 30.7764 171.624 28.4725 170.456 26.8375L167.201 29.1625C167.633 29.7675 168.029 31.0369 168.029 33.36H172.029ZM170.493 26.8906C169.242 25.0144 167.162 24.32 164.909 24.32V28.32C166.389 28.32 166.922 28.7456 167.165 29.1094L170.493 26.8906ZM166.909 26.32V24.64H162.909V26.32H166.909ZM164.716 26.6307C166.433 26.7969 168.151 26.88 169.869 26.88V22.88C168.28 22.88 166.691 22.8031 165.101 22.6493L164.716 26.6307ZM169.869 26.88C174.603 26.88 178.663 26.5003 182.01 25.706L181.087 21.814C178.141 22.513 174.414 22.88 169.869 22.88V26.88ZM179.549 23.76V56.88H183.549V23.76H179.549ZM179.549 56.88C179.549 59.2449 179.875 61.3423 180.772 62.9123L184.245 60.9277C183.862 60.2577 183.549 58.9951 183.549 56.88H179.549ZM180.808 62.9727C182.007 64.9086 184.107 65.6 186.349 65.6V61.6C184.857 61.6 184.398 61.1714 184.209 60.8673L180.808 62.9727ZM186.349 65.6C189.122 65.6 191.476 64.4202 193.314 62.254L190.264 59.666C189.115 61.0198 187.842 61.6 186.349 61.6V65.6ZM193.31 62.2579C195.196 60.0468 196.109 57.3598 196.109 54.32H192.109C192.109 56.5069 191.474 58.2466 190.267 59.6621L193.31 62.2579ZM196.109 54.32V33.36H192.109V54.32H196.109ZM196.109 33.36C196.109 30.7764 195.704 28.4725 194.536 26.8375L191.281 29.1625C191.713 29.7675 192.109 31.0369 192.109 33.36H196.109ZM194.573 26.8906C193.322 25.0144 191.242 24.32 188.989 24.32V28.32C190.469 28.32 191.002 28.7456 191.245 29.1094L194.573 26.8906ZM190.989 26.32V24.64H186.989V26.32H190.989ZM188.802 26.6313C190.566 26.7967 192.282 26.88 193.949 26.88V22.88C192.415 22.88 190.824 22.8033 189.175 22.6487L188.802 26.6313ZM193.949 26.88C198.683 26.88 202.743 26.5003 206.09 25.706L205.167 21.814C202.221 22.513 198.494 22.88 193.949 22.88V26.88ZM203.629 23.76V57.28H207.629V23.76H203.629ZM235.344 24.64H233.344V26.64H235.344V24.64ZM244.784 24.64H246.784V22.64H244.784V24.64ZM244.784 26.24V28.24H246.784V26.24H244.784ZM235.344 26.24V24.24H233.344V26.24H235.344ZM236.144 62L234.559 63.2194L234.612 63.2878L234.67 63.3514L236.144 62ZM244.304 58.16L245.24 56.3924L243.302 55.3662L242.458 57.3908L244.304 58.16ZM245.664 58.88L247.541 59.5723L248.146 57.931L246.6 57.1124L245.664 58.88ZM226.704 64.4L225.29 65.8142L226.704 64.4ZM224.384 60.24L222.431 60.6674L222.439 60.7037L222.448 60.7398L224.384 60.24ZM223.824 26.24H225.824V24.24H223.824V26.24ZM217.104 26.24H215.104V28.24H217.104V26.24ZM217.104 24.64V22.64H215.104V24.64H217.104ZM223.824 24.64V26.64H225.824V24.64H223.824ZM223.824 14.08V12.08H221.824V14.08H223.824ZM235.344 11.52H237.344V8.21232L234.415 9.7489L235.344 11.52ZM235.344 26.64H244.784V22.64H235.344V26.64ZM242.784 24.64V26.24H246.784V24.64H242.784ZM244.784 24.24H235.344V28.24H244.784V24.24ZM233.344 26.24V58.56H237.344V26.24H233.344ZM233.344 58.56C233.344 60.2809 233.611 61.9874 234.559 63.2194L237.73 60.7806C237.611 60.6259 237.344 60.0391 237.344 58.56H233.344ZM234.67 63.3514C235.771 64.5521 237.314 64.96 238.864 64.96V60.96C237.961 60.96 237.691 60.7279 237.619 60.6486L234.67 63.3514ZM238.864 64.96C242.353 64.96 244.689 62.4361 246.151 58.9292L242.458 57.3908C241.253 60.2839 239.963 60.96 238.864 60.96V64.96ZM243.369 59.9276L244.729 60.6476L246.6 57.1124L245.24 56.3924L243.369 59.9276ZM243.788 58.1877C242.871 60.6741 241.646 62.3759 240.202 63.4614C238.774 64.535 236.981 65.12 234.704 65.12V69.12C237.708 69.12 240.381 68.3316 242.606 66.6586C244.816 64.9974 246.431 62.5792 247.541 59.5723L243.788 58.1877ZM234.704 65.12C231.513 65.12 229.435 64.3019 228.119 62.9858L225.29 65.8142C227.601 68.1247 230.856 69.12 234.704 69.12V65.12ZM228.119 62.9858C227.271 62.1381 226.666 61.0755 226.321 59.7402L222.448 60.7398C222.957 62.7112 223.898 64.4219 225.29 65.8142L228.119 62.9858ZM226.338 59.8126C226.009 58.309 225.824 56.1524 225.824 53.28H221.824C221.824 56.2743 222.013 58.7577 222.431 60.6674L226.338 59.8126ZM225.824 53.28V26.24H221.824V53.28H225.824ZM223.824 24.24H217.104V28.24H223.824V24.24ZM219.104 26.24V24.64H215.104V26.24H219.104ZM217.104 26.64H223.824V22.64H217.104V26.64ZM225.824 24.64V14.08H221.824V24.64H225.824ZM223.824 16.08C228.509 16.08 232.68 15.176 236.273 13.2911L234.415 9.7489C231.502 11.2774 227.993 12.08 223.824 12.08V16.08ZM233.344 11.52V24.64H237.344V11.52H233.344Z" fill="url(#paint0_linear)"/>
<defs>
<linearGradient id="paint0_linear" x1="4" y1="60.09" x2="251.189" y2="64.6304" gradientUnits="userSpaceOnUse">
<stop stop-color="#E0040B"/>
<stop offset="1" stop-color="#DD1E4B"/>
</linearGradient>
</defs>
</svg>
