<svg width="30" height="30" viewBox="0 0 30 30" fill="none" xmlns="http://www.w3.org/2000/svg">
<path d="M15 9.19354C10.9979 9.19354 7.74194 12.4495 7.74194 16.4516C7.74194 20.4537 10.9979 23.7097 15 23.7097C19.0021 23.7097 22.2581 20.4537 22.2581 16.4516C22.2581 12.4495 19.0021 9.19354 15 9.19354ZM21.2903 16.4516C21.2903 18.0121 20.716 19.4385 19.7714 20.5388L15.4839 16.2513V10.1859C18.7264 10.4342 21.2903 13.1463 21.2903 16.4516ZM14.5161 10.1859V15.9677H8.73426C8.97052 12.8854 11.4338 10.4221 14.5161 10.1859ZM8.73426 16.9355H14.7997L19.0872 21.223C17.9869 22.1676 16.5605 22.7419 15 22.7419C11.6947 22.7419 8.98304 20.178 8.73426 16.9355Z" fill="white"/>
<path d="M27.0233 19.8226L29.6454 16.4516L27.0233 13.0806C24.1451 9.38043 19.8064 7.25806 15.1186 7.25806H14.6312C10.1081 7.25806 5.86458 9.26088 2.98876 12.7519L0.354645 15.9507L2.97672 19.5091C5.74976 23.2728 10.1637 25.545 14.8292 25.6359C14.8864 25.6374 14.9424 25.6452 15 25.6452C15.0149 25.6452 15.0291 25.6433 15.044 25.6428C15.0688 25.6428 15.0933 25.6452 15.1186 25.6452C19.8068 25.6452 24.1456 23.5228 27.0233 19.8226ZM15.044 24.6751C14.9724 24.6746 14.9008 24.6701 14.8292 24.6687C10.3728 24.5763 6.7742 20.9298 6.7742 16.4516C6.7742 11.9158 10.4642 8.2258 15 8.2258C19.5358 8.2258 23.2258 11.9158 23.2258 16.4516C23.2258 20.9723 19.5595 24.6512 15.044 24.6751ZM3.75592 18.9362L1.58086 15.9843L3.73607 13.3674C5.23588 11.546 7.1338 10.1594 9.25263 9.28734C7.15459 10.9738 5.80646 13.5566 5.80646 16.4516C5.80646 19.076 6.91785 21.4413 8.68795 23.1178C6.76499 22.1333 5.06459 20.7126 3.75592 18.9362ZM24.1936 16.4516C24.1936 13.679 22.9543 11.1949 21.0068 9.50754C23.0352 10.4375 24.8386 11.848 26.2592 13.6748L28.4192 16.4516L26.2592 19.228C24.8386 21.0548 23.0356 22.4657 21.0068 23.3957C22.9543 21.7083 24.1936 19.2242 24.1936 16.4516Z" fill="white"/>
<path d="M15 5.32257C23.8136 5.32257 29.058 13.2474 29.1102 13.3277L29.9225 12.8018C29.699 12.4568 24.3493 4.35483 15 4.35483C5.65076 4.35483 0.301007 12.4568 0.0779724 12.8018L0.890252 13.3277C0.941994 13.2474 6.18637 5.32257 15 5.32257Z" fill="white"/>
<path d="M10.6452 18.3871H14.5161V19.3548H10.6452V18.3871Z" fill="white"/>
<path d="M14.0323 20.3226H16.9355V21.2903H14.0323V20.3226Z" fill="white"/>
<path d="M12.0968 20.3226H13.0645V21.2903H12.0968V20.3226Z" fill="white"/>
<path d="M11.129 12.0968H13.5484V13.0645H11.129V12.0968Z" fill="white"/>
<path d="M11.129 14.0323H13.5484V15H11.129V14.0323Z" fill="white"/>
<path d="M16.9355 15.9677H17.9032V16.9355H16.9355V15.9677Z" fill="white"/>
<path d="M18.871 15.9677H19.8387V16.9355H18.871V15.9677Z" fill="white"/>
<path d="M0 20.3226H0.967742V21.2903H0V20.3226Z" fill="white"/>
<path d="M0 22.2581H0.967742V23.2258H0V22.2581Z" fill="white"/>
<path d="M0 24.1935H0.967742V25.1613H0V24.1935Z" fill="white"/>
<path d="M1.93549 22.2581H2.90323V23.2258H1.93549V22.2581Z" fill="white"/>
<path d="M1.93549 24.1935H2.90323V25.1613H1.93549V24.1935Z" fill="white"/>
<path d="M3.87097 24.1935H4.83871V25.1613H3.87097V24.1935Z" fill="white"/>
<path d="M23.2258 24.1935H30V25.1613H23.2258V24.1935Z" fill="white"/>
<path d="M26.129 22.2581H30V23.2258H26.129V22.2581Z" fill="white"/>
</svg>
