<svg width="52" height="52" viewBox="0 0 52 52" fill="none" xmlns="http://www.w3.org/2000/svg" style="">
<path d="M1 1H51V51H1V38.5" stroke="url(#paint0_linear)" stroke-width="2" class="nGUsZEqu_0"></path>
<path d="M25.5312 11.9375H26.4688V13.3438H25.5312V11.9375Z" fill="white" class="nGUsZEqu_1"></path>
<path d="M20.364 14.4668L21.0269 13.804L22.0211 14.7982L21.3583 15.461L20.364 14.4668Z" fill="white" class="nGUsZEqu_2"></path>
<path d="M18.5 18.9688H19.9062V19.9062H18.5V18.9688Z" fill="white" class="nGUsZEqu_3"></path>
<path d="M20.3629 24.4083L21.3571 23.414L22.0199 24.0769L21.0257 25.0711L20.3629 24.4083Z" fill="white" class="nGUsZEqu_4"></path>
<path d="M29.9741 24.0786L30.6369 23.4158L31.6311 24.41L30.9683 25.0728L29.9741 24.0786Z" fill="white" class="nGUsZEqu_5"></path>
<path d="M32.0938 18.9688H33.5V19.9062H32.0938V18.9688Z" fill="white" class="nGUsZEqu_6"></path>
<path d="M29.975 14.7988L30.9693 13.8046L31.6321 14.4674L30.6378 15.4616L29.975 14.7988Z" fill="white" class="nGUsZEqu_7"></path>
<path d="M17.5625 38.1875H18.5V40.0625H17.5625V38.1875Z" fill="white" class="nGUsZEqu_8"></path>
<path d="M36.7812 27.875H35.7844C35.8239 27.7219 35.8439 27.5644 35.8438 27.4062V25.0625C35.8438 24.9853 35.8247 24.9094 35.7883 24.8413C35.7519 24.7733 35.6992 24.7153 35.635 24.6725L34.5007 23.9163C34.2675 23.7608 33.9966 23.6716 33.7167 23.6581C33.4368 23.6445 33.1585 23.7072 32.9114 23.8394C32.6644 23.9717 32.4578 24.1685 32.3138 24.4088C32.1698 24.6492 32.0938 24.9242 32.0938 25.2044V27.4062C32.0937 27.5634 32.1134 27.72 32.1524 27.8723C31.9232 27.8598 31.7067 27.763 31.5446 27.6004L28.8125 24.8683V23.714L29.1257 22.4613C29.8331 21.8283 30.3316 20.9954 30.5554 20.0729C30.7791 19.1504 30.7175 18.1817 30.3787 17.295C30.0399 16.4083 29.4399 15.6453 28.658 15.107C27.8761 14.5687 26.9492 14.2805 26 14.2805C25.0507 14.2805 24.1238 14.5687 23.342 15.107C22.5601 15.6453 21.96 16.4083 21.6212 17.295C21.2824 18.1817 21.2208 19.1504 21.4446 20.0729C21.6683 20.9954 22.1669 21.8283 22.8743 22.4613L23.1875 23.714V24.9103C23.0977 24.9723 23.0137 25.0422 22.9365 25.1193L20.4554 27.6004C20.2933 27.763 20.0768 27.8598 19.8476 27.8723C19.8866 27.72 19.9063 27.5634 19.9062 27.4062V25.2044C19.9062 24.9242 19.8302 24.6492 19.6862 24.4088C19.5422 24.1685 19.3356 23.9717 19.0886 23.8394C18.8415 23.7072 18.5632 23.6445 18.2833 23.6581C18.0034 23.6716 17.7325 23.7608 17.4993 23.9163L16.365 24.6725C16.3008 24.7153 16.2481 24.7733 16.2117 24.8413C16.1753 24.9094 16.1562 24.9853 16.1562 25.0625V27.4062C16.1561 27.5644 16.1761 27.7219 16.2156 27.875H15.2188C14.3488 27.876 13.5148 28.222 12.8996 28.8371C12.2845 29.4523 11.9385 30.2863 11.9375 31.1562V35.8437C11.9381 36.3408 12.1358 36.8174 12.4873 37.1689C12.8388 37.5205 13.3154 37.7182 13.8125 37.7187H14.2812V40.0625H15.2188V35.8437H20.8438V40.0625H21.7812V31.3504L23.9966 29.1351L24.1745 29.4909C24.2134 29.5688 24.2733 29.6342 24.3473 29.68C24.4214 29.7258 24.5067 29.75 24.5938 29.75H27.4062C27.4933 29.75 27.5786 29.7258 27.6527 29.68C27.7267 29.6342 27.7866 29.5688 27.8255 29.4909L28.0034 29.1351L30.2188 31.3504V40.0625H31.1562V35.8437H36.7812V40.0625H37.7188V37.7187H38.1875C38.6846 37.7182 39.1612 37.5205 39.5127 37.1689C39.8642 36.8174 40.0619 36.3408 40.0625 35.8437V31.1562C40.0615 30.2863 39.7155 29.4523 39.1004 28.8371C38.4852 28.222 37.6512 27.876 36.7812 27.875ZM33.9688 28.3437C33.7202 28.3435 33.4819 28.2446 33.3062 28.0688C33.1304 27.8931 33.0315 27.6548 33.0312 27.4062V26.4687H34.9062V27.4062C34.906 27.6548 34.8071 27.8931 34.6313 28.0688C34.4556 28.2446 34.2173 28.3435 33.9688 28.3437ZM33.6419 24.5937C33.7625 24.5936 33.8804 24.6293 33.9807 24.6963L34.9062 25.3134V25.5312H33.0312V25.2044C33.0314 25.0425 33.0958 24.8873 33.2103 24.7728C33.3248 24.6583 33.48 24.5939 33.6419 24.5937ZM22.25 18.9688C22.2499 18.3379 22.4089 17.7173 22.7123 17.1642C23.0158 16.6112 23.4538 16.1436 23.986 15.8048C24.5181 15.466 25.1271 15.2669 25.7566 15.226C26.3861 15.185 27.0157 15.3035 27.5872 15.5705C28.1588 15.8375 28.6537 16.2444 29.0262 16.7535C29.3988 17.2625 29.6369 17.8574 29.7185 18.4829C29.8001 19.1084 29.7226 19.7444 29.4931 20.332C29.2637 20.9196 28.8897 21.4399 28.4058 21.8446C28.3299 21.9082 28.2761 21.9942 28.2521 22.0902L27.9778 23.1875H27.4908L28.3374 18.1083C28.3528 18.016 28.3401 17.9211 28.3011 17.836C28.2621 17.7509 28.1985 17.6794 28.1185 17.6307C28.0385 17.5821 27.9458 17.5585 27.8522 17.563C27.7587 17.5676 27.6687 17.6001 27.5938 17.6562L26 18.8516L24.4062 17.6562C24.3313 17.6001 24.2413 17.5676 24.1478 17.563C24.0542 17.5585 23.9615 17.5821 23.8815 17.6307C23.8015 17.6794 23.7379 17.7509 23.6989 17.836C23.6599 17.9211 23.6472 18.016 23.6626 18.1083L24.5092 23.1875H24.0222L23.7479 22.0902C23.7239 21.9942 23.6701 21.9082 23.5941 21.8446C23.173 21.493 22.8344 21.0532 22.6021 20.5562C22.3698 20.0593 22.2496 19.5173 22.25 18.9688ZM25.4596 23.1875L24.7797 19.1082L25.7188 19.8125C25.7999 19.8734 25.8986 19.9062 26 19.9062C26.1014 19.9062 26.2001 19.8734 26.2812 19.8125L27.2203 19.1082L26.5404 23.1875H25.4596ZM24.125 24.125H27.875V26.9375H25.9144C26.0006 26.6683 26.0221 26.3826 25.9771 26.1035C25.932 25.8244 25.8218 25.5599 25.6552 25.3315C25.4887 25.1031 25.2706 24.9173 25.0187 24.7891C24.7667 24.6609 24.4881 24.5939 24.2054 24.5937C24.1785 24.5937 24.1517 24.5945 24.125 24.5957V24.125ZM23.5994 25.7823C23.6789 25.7026 23.7734 25.6394 23.8774 25.5962C23.9814 25.553 24.0929 25.5308 24.2055 25.5308C24.3181 25.5307 24.4297 25.5529 24.5337 25.5959C24.6377 25.639 24.7323 25.7022 24.8119 25.7818C24.8915 25.8614 24.9547 25.9559 24.9978 26.06C25.0408 26.164 25.063 26.2755 25.063 26.3881C25.0629 26.5007 25.0407 26.6122 24.9975 26.7163C24.9544 26.8203 24.8912 26.9148 24.8115 26.9943L23.1875 28.6183L21.9754 27.4062L23.5994 25.7823ZM18.0312 28.3437C17.7827 28.3435 17.5444 28.2446 17.3687 28.0688C17.1929 27.8931 17.094 27.6548 17.0938 27.4062V26.4687H18.9688V27.4062C18.9685 27.6548 18.8696 27.8931 18.6938 28.0688C18.5181 28.2446 18.2798 28.3435 18.0312 28.3437ZM18.0193 24.6963C18.1113 24.635 18.2182 24.5998 18.3286 24.5945C18.439 24.5891 18.5488 24.6139 18.6462 24.666C18.7437 24.7182 18.8251 24.7958 18.8819 24.8906C18.9387 24.9854 18.9687 25.0939 18.9688 25.2044V25.5312H17.0938V25.3134L18.0193 24.6963ZM12.875 35.8437V33.5H14.2812V36.7812H13.8125C13.5639 36.781 13.3257 36.6821 13.1499 36.5063C12.9741 36.3306 12.8753 36.0923 12.875 35.8437ZM20.9811 30.8248C20.8931 30.9127 20.8438 31.0319 20.8438 31.1562V34.9062H15.2188V31.625H14.2812V32.5625H12.875V31.1562C12.8757 30.5349 13.1229 29.9391 13.5622 29.4997C14.0016 29.0604 14.5974 28.8132 15.2188 28.8125H16.793C17.1348 29.1145 17.5752 29.2812 18.0312 29.2812C18.4873 29.2812 18.9277 29.1145 19.2695 28.8125H19.7925C20.0388 28.8132 20.2829 28.765 20.5104 28.6707C20.738 28.5765 20.9446 28.438 21.1183 28.2634L21.3125 28.0692L22.5246 29.2812L20.9811 30.8248ZM27.1165 28.8125H24.8835L24.6954 28.4363L25.2566 27.875H27.5853L27.1165 28.8125ZM28.763 27.6159L28.7626 27.6157C28.7954 27.5508 28.8125 27.479 28.8125 27.4062V26.1942L30.0246 27.4062L28.8125 28.6183L28.4454 28.2512L28.763 27.6159ZM38.1875 36.7812H37.7188V33.5H39.125V35.8437C39.1247 36.0923 39.0259 36.3306 38.8501 36.5063C38.6743 36.6821 38.4361 36.781 38.1875 36.7812ZM39.125 32.5625H37.7188V31.625H36.7812V34.9062H31.1562V31.1562C31.1562 31.0319 31.1069 30.9127 31.0189 30.8248L29.4754 29.2812L30.6875 28.0692L30.8817 28.2634C31.0554 28.438 31.262 28.5765 31.4896 28.6707C31.7171 28.765 31.9612 28.8132 32.2075 28.8125H32.7305C33.0723 29.1145 33.5127 29.2812 33.9688 29.2812C34.4248 29.2812 34.8652 29.1145 35.207 28.8125H36.7812C37.4026 28.8132 37.9984 29.0604 38.4378 29.4997C38.8771 29.9391 39.1243 30.5349 39.125 31.1562V32.5625Z" fill="white" class="nGUsZEqu_9"></path>
<path d="M33.5 38.1875H34.4375V40.0625H33.5V38.1875Z" fill="white" class="nGUsZEqu_10"></path>
<defs>
<linearGradient id="paint0_linear" x1="1" y1="26" x2="51" y2="26" gradientUnits="userSpaceOnUse">
<stop stop-color="#E0040B"></stop>
<stop offset="1" stop-color="#DD1E4B"></stop>
</linearGradient>
</defs>
<style data-made-with="vivus-instant">.nGUsZEqu_0{stroke-dasharray:163 165;stroke-dashoffset:164;animation:nGUsZEqu_draw_0 6800ms linear 0ms infinite,nGUsZEqu_fade 6800ms linear 0ms infinite;}.nGUsZEqu_1{stroke-dasharray:5 7;stroke-dashoffset:6;animation:nGUsZEqu_draw_1 6800ms linear 0ms infinite,nGUsZEqu_fade 6800ms linear 0ms infinite;}.nGUsZEqu_2{stroke-dasharray:5 7;stroke-dashoffset:6;animation:nGUsZEqu_draw_2 6800ms linear 0ms infinite,nGUsZEqu_fade 6800ms linear 0ms infinite;}.nGUsZEqu_3{stroke-dasharray:5 7;stroke-dashoffset:6;animation:nGUsZEqu_draw_3 6800ms linear 0ms infinite,nGUsZEqu_fade 6800ms linear 0ms infinite;}.nGUsZEqu_4{stroke-dasharray:5 7;stroke-dashoffset:6;animation:nGUsZEqu_draw_4 6800ms linear 0ms infinite,nGUsZEqu_fade 6800ms linear 0ms infinite;}.nGUsZEqu_5{stroke-dasharray:5 7;stroke-dashoffset:6;animation:nGUsZEqu_draw_5 6800ms linear 0ms infinite,nGUsZEqu_fade 6800ms linear 0ms infinite;}.nGUsZEqu_6{stroke-dasharray:5 7;stroke-dashoffset:6;animation:nGUsZEqu_draw_6 6800ms linear 0ms infinite,nGUsZEqu_fade 6800ms linear 0ms infinite;}.nGUsZEqu_7{stroke-dasharray:5 7;stroke-dashoffset:6;animation:nGUsZEqu_draw_7 6800ms linear 0ms infinite,nGUsZEqu_fade 6800ms linear 0ms infinite;}.nGUsZEqu_8{stroke-dasharray:6 8;stroke-dashoffset:7;animation:nGUsZEqu_draw_8 6800ms linear 0ms infinite,nGUsZEqu_fade 6800ms linear 0ms infinite;}.nGUsZEqu_9{stroke-dasharray:342 344;stroke-dashoffset:343;animation:nGUsZEqu_draw_9 6800ms linear 0ms infinite,nGUsZEqu_fade 6800ms linear 0ms infinite;}.nGUsZEqu_10{stroke-dasharray:6 8;stroke-dashoffset:7;animation:nGUsZEqu_draw_10 6800ms linear 0ms infinite,nGUsZEqu_fade 6800ms linear 0ms infinite;}@keyframes nGUsZEqu_draw{100%{stroke-dashoffset:0;}}@keyframes nGUsZEqu_fade{0%{stroke-opacity:1;}94.11764705882354%{stroke-opacity:1;}100%{stroke-opacity:0;}}@keyframes nGUsZEqu_draw_0{5.88235294117647%{stroke-dashoffset: 164}35.294117647058826%{ stroke-dashoffset: 0;}100%{ stroke-dashoffset: 0;}}@keyframes nGUsZEqu_draw_1{7.352941176470589%{stroke-dashoffset: 6}36.76470588235294%{ stroke-dashoffset: 0;}100%{ stroke-dashoffset: 0;}}@keyframes nGUsZEqu_draw_2{8.823529411764707%{stroke-dashoffset: 6}38.23529411764706%{ stroke-dashoffset: 0;}100%{ stroke-dashoffset: 0;}}@keyframes nGUsZEqu_draw_3{10.294117647058822%{stroke-dashoffset: 6}39.705882352941174%{ stroke-dashoffset: 0;}100%{ stroke-dashoffset: 0;}}@keyframes nGUsZEqu_draw_4{11.76470588235294%{stroke-dashoffset: 6}41.17647058823529%{ stroke-dashoffset: 0;}100%{ stroke-dashoffset: 0;}}@keyframes nGUsZEqu_draw_5{13.23529411764706%{stroke-dashoffset: 6}42.64705882352941%{ stroke-dashoffset: 0;}100%{ stroke-dashoffset: 0;}}@keyframes nGUsZEqu_draw_6{14.705882352941178%{stroke-dashoffset: 6}44.11764705882353%{ stroke-dashoffset: 0;}100%{ stroke-dashoffset: 0;}}@keyframes nGUsZEqu_draw_7{16.176470588235293%{stroke-dashoffset: 6}45.588235294117645%{ stroke-dashoffset: 0;}100%{ stroke-dashoffset: 0;}}@keyframes nGUsZEqu_draw_8{17.647058823529413%{stroke-dashoffset: 7}47.05882352941176%{ stroke-dashoffset: 0;}100%{ stroke-dashoffset: 0;}}@keyframes nGUsZEqu_draw_9{19.11764705882353%{stroke-dashoffset: 343}48.529411764705884%{ stroke-dashoffset: 0;}100%{ stroke-dashoffset: 0;}}@keyframes nGUsZEqu_draw_10{20.588235294117645%{stroke-dashoffset: 7}50%{ stroke-dashoffset: 0;}100%{ stroke-dashoffset: 0;}}</style></svg>
