<svg width="52" height="52" viewBox="0 0 52 52" fill="none" xmlns="http://www.w3.org/2000/svg" style="">
<path d="M26 20.1935C21.9979 20.1935 18.7419 23.4495 18.7419 27.4516C18.7419 31.4537 21.9979 34.7097 26 34.7097C30.0021 34.7097 33.2581 31.4537 33.2581 27.4516C33.2581 23.4495 30.0021 20.1935 26 20.1935ZM32.2903 27.4516C32.2903 29.0121 31.716 30.4385 30.7714 31.5388L26.4839 27.2513V21.1859C29.7264 21.4342 32.2903 24.1463 32.2903 27.4516ZM25.5161 21.1859V26.9677H19.7343C19.9705 23.8854 22.4338 21.4221 25.5161 21.1859ZM19.7343 27.9355H25.7997L30.0872 32.223C28.9869 33.1676 27.5605 33.7419 26 33.7419C22.6947 33.7419 19.983 31.178 19.7343 27.9355Z" fill="white" class="KzLwUyyY_0"></path>
<path d="M38.0233 30.8226L40.6454 27.4516L38.0233 24.0806C35.1451 20.3804 30.8064 18.2581 26.1186 18.2581H25.6312C21.1081 18.2581 16.8646 20.2609 13.9888 23.7519L11.3546 26.9507L13.9767 30.5091C16.7498 34.2728 21.1637 36.545 25.8292 36.6359C25.8864 36.6374 25.9424 36.6452 26 36.6452C26.0149 36.6452 26.0291 36.6433 26.044 36.6428C26.0688 36.6428 26.0933 36.6452 26.1186 36.6452C30.8068 36.6452 35.1456 34.5228 38.0233 30.8226ZM26.044 35.6751C25.9724 35.6746 25.9008 35.6701 25.8292 35.6687C21.3728 35.5763 17.7742 31.9298 17.7742 27.4516C17.7742 22.9158 21.4642 19.2258 26 19.2258C30.5358 19.2258 34.2258 22.9158 34.2258 27.4516C34.2258 31.9723 30.5595 35.6512 26.044 35.6751ZM14.7559 29.9362L12.5809 26.9843L14.7361 24.3674C16.2359 22.546 18.1338 21.1594 20.2526 20.2873C18.1546 21.9738 16.8065 24.5566 16.8065 27.4516C16.8065 30.076 17.9179 32.4413 19.688 34.1178C17.765 33.1333 16.0646 31.7126 14.7559 29.9362ZM35.1936 27.4516C35.1936 24.679 33.9543 22.1949 32.0068 20.5075C34.0352 21.4375 35.8386 22.848 37.2592 24.6748L39.4192 27.4516L37.2592 30.228C35.8386 32.0548 34.0356 33.4657 32.0068 34.3957C33.9543 32.7083 35.1936 30.2242 35.1936 27.4516Z" fill="white" class="KzLwUyyY_1"></path>
<path d="M26 16.3226C34.8136 16.3226 40.058 24.2474 40.1102 24.3277L40.9225 23.8018C40.699 23.4568 35.3493 15.3548 26 15.3548C16.6508 15.3548 11.301 23.4568 11.078 23.8018L11.8903 24.3277C11.942 24.2474 17.1864 16.3226 26 16.3226Z" fill="white" class="KzLwUyyY_2"></path>
<path d="M21.6452 29.3871H25.5161V30.3548H21.6452V29.3871Z" fill="white" class="KzLwUyyY_3"></path>
<path d="M25.0323 31.3226H27.9355V32.2903H25.0323V31.3226Z" fill="white" class="KzLwUyyY_4"></path>
<path d="M23.0968 31.3226H24.0645V32.2903H23.0968V31.3226Z" fill="white" class="KzLwUyyY_5"></path>
<path d="M22.129 23.0968H24.5484V24.0645H22.129V23.0968Z" fill="white" class="KzLwUyyY_6"></path>
<path d="M22.129 25.0323H24.5484V26H22.129V25.0323Z" fill="white" class="KzLwUyyY_7"></path>
<path d="M27.9355 26.9677H28.9032V27.9355H27.9355V26.9677Z" fill="white" class="KzLwUyyY_8"></path>
<path d="M29.871 26.9677H30.8387V27.9355H29.871V26.9677Z" fill="white" class="KzLwUyyY_9"></path>
<path d="M11 31.3226H11.9677V32.2903H11V31.3226Z" fill="white" class="KzLwUyyY_10"></path>
<path d="M11 33.2581H11.9677V34.2258H11V33.2581Z" fill="white" class="KzLwUyyY_11"></path>
<path d="M11 35.1935H11.9677V36.1613H11V35.1935Z" fill="white" class="KzLwUyyY_12"></path>
<path d="M12.9355 33.2581H13.9032V34.2258H12.9355V33.2581Z" fill="white" class="KzLwUyyY_13"></path>
<path d="M12.9355 35.1935H13.9032V36.1613H12.9355V35.1935Z" fill="white" class="KzLwUyyY_14"></path>
<path d="M14.871 35.1935H15.8387V36.1613H14.871V35.1935Z" fill="white" class="KzLwUyyY_15"></path>
<path d="M34.2258 35.1935H41V36.1613H34.2258V35.1935Z" fill="white" class="KzLwUyyY_16"></path>
<path d="M37.129 33.2581H41V34.2258H37.129V33.2581Z" fill="white" class="KzLwUyyY_17"></path>
<path d="M1 1H51V51H1V38.5" stroke="url(#paint0_linear)" stroke-width="2" class="KzLwUyyY_18"></path>
<defs>
<linearGradient id="paint0_linear" x1="26" y1="1" x2="26" y2="51" gradientUnits="userSpaceOnUse">
<stop stop-color="#E0040B"></stop>
<stop offset="1" stop-color="#DD1E4B"></stop>
</linearGradient>
</defs>
<style data-made-with="vivus-instant">.KzLwUyyY_0{stroke-dasharray:119 121;stroke-dashoffset:120;animation:KzLwUyyY_draw_0 6800ms linear 0ms infinite,KzLwUyyY_fade 6800ms linear 0ms infinite;}.KzLwUyyY_1{stroke-dasharray:197 199;stroke-dashoffset:198;animation:KzLwUyyY_draw_1 6800ms linear 0ms infinite,KzLwUyyY_fade 6800ms linear 0ms infinite;}.KzLwUyyY_2{stroke-dasharray:72 74;stroke-dashoffset:73;animation:KzLwUyyY_draw_2 6800ms linear 0ms infinite,KzLwUyyY_fade 6800ms linear 0ms infinite;}.KzLwUyyY_3{stroke-dasharray:10 12;stroke-dashoffset:11;animation:KzLwUyyY_draw_3 6800ms linear 0ms infinite,KzLwUyyY_fade 6800ms linear 0ms infinite;}.KzLwUyyY_4{stroke-dasharray:8 10;stroke-dashoffset:9;animation:KzLwUyyY_draw_4 6800ms linear 0ms infinite,KzLwUyyY_fade 6800ms linear 0ms infinite;}.KzLwUyyY_5{stroke-dasharray:4 6;stroke-dashoffset:5;animation:KzLwUyyY_draw_5 6800ms linear 0ms infinite,KzLwUyyY_fade 6800ms linear 0ms infinite;}.KzLwUyyY_6{stroke-dasharray:7 9;stroke-dashoffset:8;animation:KzLwUyyY_draw_6 6800ms linear 0ms infinite,KzLwUyyY_fade 6800ms linear 0ms infinite;}.KzLwUyyY_7{stroke-dasharray:7 9;stroke-dashoffset:8;animation:KzLwUyyY_draw_7 6800ms linear 0ms infinite,KzLwUyyY_fade 6800ms linear 0ms infinite;}.KzLwUyyY_8{stroke-dasharray:4 6;stroke-dashoffset:5;animation:KzLwUyyY_draw_8 6800ms linear 0ms infinite,KzLwUyyY_fade 6800ms linear 0ms infinite;}.KzLwUyyY_9{stroke-dasharray:4 6;stroke-dashoffset:5;animation:KzLwUyyY_draw_9 6800ms linear 0ms infinite,KzLwUyyY_fade 6800ms linear 0ms infinite;}.KzLwUyyY_10{stroke-dasharray:4 6;stroke-dashoffset:5;animation:KzLwUyyY_draw_10 6800ms linear 0ms infinite,KzLwUyyY_fade 6800ms linear 0ms infinite;}.KzLwUyyY_11{stroke-dasharray:4 6;stroke-dashoffset:5;animation:KzLwUyyY_draw_11 6800ms linear 0ms infinite,KzLwUyyY_fade 6800ms linear 0ms infinite;}.KzLwUyyY_12{stroke-dasharray:4 6;stroke-dashoffset:5;animation:KzLwUyyY_draw_12 6800ms linear 0ms infinite,KzLwUyyY_fade 6800ms linear 0ms infinite;}.KzLwUyyY_13{stroke-dasharray:4 6;stroke-dashoffset:5;animation:KzLwUyyY_draw_13 6800ms linear 0ms infinite,KzLwUyyY_fade 6800ms linear 0ms infinite;}.KzLwUyyY_14{stroke-dasharray:4 6;stroke-dashoffset:5;animation:KzLwUyyY_draw_14 6800ms linear 0ms infinite,KzLwUyyY_fade 6800ms linear 0ms infinite;}.KzLwUyyY_15{stroke-dasharray:4 6;stroke-dashoffset:5;animation:KzLwUyyY_draw_15 6800ms linear 0ms infinite,KzLwUyyY_fade 6800ms linear 0ms infinite;}.KzLwUyyY_16{stroke-dasharray:16 18;stroke-dashoffset:17;animation:KzLwUyyY_draw_16 6800ms linear 0ms infinite,KzLwUyyY_fade 6800ms linear 0ms infinite;}.KzLwUyyY_17{stroke-dasharray:10 12;stroke-dashoffset:11;animation:KzLwUyyY_draw_17 6800ms linear 0ms infinite,KzLwUyyY_fade 6800ms linear 0ms infinite;}.KzLwUyyY_18{stroke-dasharray:163 165;stroke-dashoffset:164;animation:KzLwUyyY_draw_18 6800ms linear 0ms infinite,KzLwUyyY_fade 6800ms linear 0ms infinite;}@keyframes KzLwUyyY_draw{100%{stroke-dashoffset:0;}}@keyframes KzLwUyyY_fade{0%{stroke-opacity:1;}94.11764705882354%{stroke-opacity:1;}100%{stroke-opacity:0;}}@keyframes KzLwUyyY_draw_0{5.88235294117647%{stroke-dashoffset: 120}35.294117647058826%{ stroke-dashoffset: 0;}100%{ stroke-dashoffset: 0;}}@keyframes KzLwUyyY_draw_1{6.699346405228758%{stroke-dashoffset: 198}36.11111111111111%{ stroke-dashoffset: 0;}100%{ stroke-dashoffset: 0;}}@keyframes KzLwUyyY_draw_2{7.516339869281046%{stroke-dashoffset: 73}36.9281045751634%{ stroke-dashoffset: 0;}100%{ stroke-dashoffset: 0;}}@keyframes KzLwUyyY_draw_3{8.333333333333334%{stroke-dashoffset: 11}37.74509803921569%{ stroke-dashoffset: 0;}100%{ stroke-dashoffset: 0;}}@keyframes KzLwUyyY_draw_4{9.15032679738562%{stroke-dashoffset: 9}38.56209150326798%{ stroke-dashoffset: 0;}100%{ stroke-dashoffset: 0;}}@keyframes KzLwUyyY_draw_5{9.967320261437909%{stroke-dashoffset: 5}39.37908496732026%{ stroke-dashoffset: 0;}100%{ stroke-dashoffset: 0;}}@keyframes KzLwUyyY_draw_6{10.784313725490197%{stroke-dashoffset: 8}40.19607843137255%{ stroke-dashoffset: 0;}100%{ stroke-dashoffset: 0;}}@keyframes KzLwUyyY_draw_7{11.601307189542483%{stroke-dashoffset: 8}41.01307189542484%{ stroke-dashoffset: 0;}100%{ stroke-dashoffset: 0;}}@keyframes KzLwUyyY_draw_8{12.418300653594772%{stroke-dashoffset: 5}41.830065359477125%{ stroke-dashoffset: 0;}100%{ stroke-dashoffset: 0;}}@keyframes KzLwUyyY_draw_9{13.23529411764706%{stroke-dashoffset: 5}42.64705882352941%{ stroke-dashoffset: 0;}100%{ stroke-dashoffset: 0;}}@keyframes KzLwUyyY_draw_10{14.052287581699346%{stroke-dashoffset: 5}43.4640522875817%{ stroke-dashoffset: 0;}100%{ stroke-dashoffset: 0;}}@keyframes KzLwUyyY_draw_11{14.869281045751634%{stroke-dashoffset: 5}44.28104575163399%{ stroke-dashoffset: 0;}100%{ stroke-dashoffset: 0;}}@keyframes KzLwUyyY_draw_12{15.686274509803921%{stroke-dashoffset: 5}45.09803921568628%{ stroke-dashoffset: 0;}100%{ stroke-dashoffset: 0;}}@keyframes KzLwUyyY_draw_13{16.503267973856207%{stroke-dashoffset: 5}45.91503267973856%{ stroke-dashoffset: 0;}100%{ stroke-dashoffset: 0;}}@keyframes KzLwUyyY_draw_14{17.320261437908496%{stroke-dashoffset: 5}46.73202614379085%{ stroke-dashoffset: 0;}100%{ stroke-dashoffset: 0;}}@keyframes KzLwUyyY_draw_15{18.137254901960787%{stroke-dashoffset: 5}47.54901960784314%{ stroke-dashoffset: 0;}100%{ stroke-dashoffset: 0;}}@keyframes KzLwUyyY_draw_16{18.954248366013072%{stroke-dashoffset: 17}48.366013071895416%{ stroke-dashoffset: 0;}100%{ stroke-dashoffset: 0;}}@keyframes KzLwUyyY_draw_17{19.77124183006536%{stroke-dashoffset: 11}49.18300653594771%{ stroke-dashoffset: 0;}100%{ stroke-dashoffset: 0;}}@keyframes KzLwUyyY_draw_18{20.588235294117645%{stroke-dashoffset: 164}50%{ stroke-dashoffset: 0;}100%{ stroke-dashoffset: 0;}}</style></svg>
