<svg width="13" height="26" viewBox="0 0 13 26" fill="none" xmlns="http://www.w3.org/2000/svg">
<path d="M7.80001 1.4L7.80001 22.5779L11.2912 19.0697C11.6808 18.6782 12.314 18.6767 12.7054 19.0663C13.0969 19.4559 13.0984 20.0891 12.7088 20.4806L7.50881 25.7058C7.50851 25.7061 7.50816 25.7064 7.50786 25.7067C7.11826 26.0971 6.48306 26.0984 6.09216 25.7068C6.09186 25.7064 6.09151 25.7062 6.09121 25.7059L0.891214 20.4807C0.501715 20.0893 0.503065 19.4561 0.894614 19.0664C1.28606 18.6768 1.91921 18.6783 2.30881 19.0698L5.80001 22.5779L5.80001 1.4C5.80001 0.8477 6.24771 0.4 6.80001 0.4C7.35231 0.4 7.80001 0.8477 7.80001 1.4Z" fill="white"/>
</svg>
