<svg width="13" height="26" viewBox="0 0 13 26" fill="none" xmlns="http://www.w3.org/2000/svg">
<path d="M5.19999 24.6L5.19999 3.42212L1.70879 6.93031C1.3192 7.32176 0.686046 7.32326 0.294596 6.93366C-0.0969035 6.54406 -0.0983532 5.91086 0.291196 5.51941L5.49119 0.294219C5.49149 0.293869 5.49184 0.293619 5.49214 0.293319C5.88174 -0.097131 6.51694 -0.098381 6.90784 0.293219C6.90814 0.293569 6.90849 0.293819 6.90879 0.294119L12.1088 5.51932C12.4983 5.91071 12.4969 6.54391 12.1054 6.93356C11.7139 7.32316 11.0808 7.32166 10.6912 6.93021L7.19999 3.42212L7.19999 24.6C7.19999 25.1523 6.75229 25.6 6.19999 25.6C5.64769 25.6 5.19999 25.1523 5.19999 24.6Z" fill="white"/>
</svg>
