<svg width="30" height="30" viewBox="0 0 30 30" fill="none" xmlns="http://www.w3.org/2000/svg">
<path d="M28.1221 16.0716C27.2273 15.2719 26.0236 14.8927 24.8226 15.0272C22.9237 15.2419 21.3703 16.7723 21.1289 18.6661C20.9193 20.3114 21.6529 21.885 23.0432 22.7733C23.2861 22.9284 23.437 23.228 23.437 23.5547V24.375C23.437 25.4091 24.2779 26.25 25.312 26.25C26.3461 26.25 27.187 25.4091 27.187 24.375V23.5355C27.187 23.2167 27.3379 22.9294 27.5911 22.7667C28.8061 21.9858 29.5312 20.6592 29.5312 19.2187C29.5312 18.0183 29.0175 16.8712 28.1221 16.0716ZM25.3125 25.3125C24.7954 25.3125 24.375 24.892 24.375 24.375H26.25C26.25 24.892 25.8295 25.3125 25.3125 25.3125ZM24.8437 19.2187C24.8437 18.96 25.0542 18.75 25.3125 18.75C25.5707 18.75 25.7812 18.96 25.7812 19.2187C25.7812 19.4775 25.5707 19.6875 25.3125 19.6875C25.0542 19.6875 24.8437 19.4775 24.8437 19.2187ZM27.0843 21.9787C26.5889 22.297 26.2861 22.838 26.2556 23.4375H25.7812V20.5387C26.3254 20.3447 26.7187 19.8291 26.7187 19.2187C26.7187 18.4434 26.0878 17.8125 25.3125 17.8125C24.5371 17.8125 23.9062 18.4434 23.9062 19.2187C23.9062 19.8291 24.2995 20.3447 24.8437 20.5387V23.4375H24.3679C24.3332 22.8323 24.0346 22.2942 23.5481 21.983C22.4662 21.2916 21.8957 20.0662 22.0589 18.7847C22.2464 17.3142 23.4529 16.1259 24.9276 15.9595C25.0579 15.9445 25.1878 15.937 25.3162 15.937C26.1248 15.937 26.8879 16.2262 27.4968 16.7705C28.1939 17.393 28.5937 18.2855 28.5937 19.2187C28.5937 20.3391 28.0293 21.3708 27.0843 21.9787Z" fill="white"/>
<path d="M7.49718 16.0716C6.60234 15.2719 5.39952 14.8927 4.19765 15.0272C2.29874 15.2419 0.745304 16.7723 0.503898 18.6661C0.294367 20.3114 1.02796 21.885 2.41827 22.7733C2.66155 22.9284 2.81249 23.228 2.81249 23.5547V24.375C2.81249 25.4091 3.65343 26.25 4.68749 26.25C5.72155 26.25 6.56249 25.4091 6.56249 24.375V23.5355C6.56249 23.2167 6.71343 22.9294 6.96655 22.7667C8.18109 21.9858 8.90624 20.6592 8.90624 19.2187C8.90624 18.0183 8.39249 16.8712 7.49718 16.0716ZM4.68749 25.3125C4.17046 25.3125 3.74999 24.892 3.74999 24.375H5.62499C5.62499 24.892 5.20452 25.3125 4.68749 25.3125ZM4.21874 19.2187C4.21874 18.96 4.42921 18.75 4.68749 18.75C4.94577 18.75 5.15624 18.96 5.15624 19.2187C5.15624 19.4775 4.94577 19.6875 4.68749 19.6875C4.42921 19.6875 4.21874 19.4775 4.21874 19.2187ZM6.45937 21.9787C5.9639 22.297 5.66109 22.838 5.63062 23.4375H5.15624V20.5387C5.70046 20.3447 6.09374 19.8291 6.09374 19.2187C6.09374 18.4434 5.4628 17.8125 4.68749 17.8125C3.91218 17.8125 3.28124 18.4434 3.28124 19.2187C3.28124 19.8291 3.67452 20.3447 4.21874 20.5387V23.4375H3.74296C3.70827 22.8323 3.40968 22.2942 2.92312 21.983C1.84124 21.2916 1.27077 20.0662 1.4339 18.7847C1.6214 17.3142 2.82796 16.1259 4.30265 15.9595C4.43296 15.9445 4.5628 15.937 4.69124 15.937C5.49984 15.937 6.26296 16.2262 6.87187 16.7705C7.5689 17.393 7.96874 18.2855 7.96874 19.2187C7.96874 20.3391 7.40437 21.3708 6.45937 21.9787Z" fill="white"/>
<path d="M15 6.09375C14.5439 6.09375 14.1272 6.32438 13.8853 6.71109L11.7188 10.178V26.25C11.7188 28.0589 13.1906 29.5312 15 29.5312C16.8094 29.5312 18.2813 28.0589 18.2813 26.25V10.178L16.1147 6.71109C15.8728 6.32438 15.4561 6.09375 15 6.09375ZM14.6803 7.20844C14.8186 6.98672 15.1809 6.98672 15.3192 7.20844L17.1413 10.1236L16.0294 10.6795L15 9.64969L13.9702 10.6795L12.8583 10.1236L14.6803 7.20844ZM12.6563 11.0709L13.5938 11.5397V24.8438H12.6563V11.0709ZM14.5313 11.4441L15 10.9753L15.4688 11.4441V24.8438H14.5313V11.4441ZM16.4063 11.5397L17.3438 11.0709V24.8438H16.4063V11.5397ZM15 28.5938C13.7077 28.5938 12.6563 27.5423 12.6563 26.25V25.7812H17.3438V26.25C17.3438 27.5423 16.2924 28.5938 15 28.5938Z" fill="white"/>
<path d="M2.34375 4.21875C3.21469 4.21875 3.94266 3.61922 4.15219 2.8125H13.125V3.44766C8.07141 4.33828 4.21875 8.75719 4.21875 14.0625H5.15625C5.15625 8.63484 9.57187 4.21875 15 4.21875C20.4281 4.21875 24.8438 8.63484 24.8438 14.0625H25.7812C25.7812 8.75719 21.9286 4.33828 16.875 3.44766V2.8125H25.8478C26.0573 3.61922 26.7853 4.21875 27.6562 4.21875C28.6903 4.21875 29.5312 3.37781 29.5312 2.34375C29.5312 1.30969 28.6903 0.46875 27.6562 0.46875C26.7853 0.46875 26.0573 1.06828 25.8478 1.875H16.875V0.46875H13.125V1.875H4.15219C3.94266 1.06828 3.21469 0.46875 2.34375 0.46875C1.30969 0.46875 0.46875 1.30969 0.46875 2.34375C0.46875 3.37781 1.30969 4.21875 2.34375 4.21875ZM27.6562 1.40625C28.1733 1.40625 28.5938 1.82672 28.5938 2.34375C28.5938 2.86078 28.1733 3.28125 27.6562 3.28125C27.1392 3.28125 26.7188 2.86078 26.7188 2.34375C26.7188 1.82672 27.1392 1.40625 27.6562 1.40625ZM14.0625 1.40625H15.9375V3.28125H14.0625V1.40625ZM2.34375 1.40625C2.86078 1.40625 3.28125 1.82672 3.28125 2.34375C3.28125 2.86078 2.86078 3.28125 2.34375 3.28125C1.82672 3.28125 1.40625 2.86078 1.40625 2.34375C1.40625 1.82672 1.82672 1.40625 2.34375 1.40625Z" fill="white"/>
</svg>
