<svg width="30" height="30" viewBox="0 0 30 30" fill="none" xmlns="http://www.w3.org/2000/svg">
<path d="M14.5312 0.9375H15.4688V2.34375H14.5312V0.9375Z" fill="white"/>
<path d="M9.36404 3.46683L10.0269 2.80402L11.0211 3.79823L10.3583 4.46104L9.36404 3.46683Z" fill="white"/>
<path d="M7.5 7.96875H8.90625V8.90625H7.5V7.96875Z" fill="white"/>
<path d="M9.36285 13.4083L10.3571 12.414L11.0199 13.0769L10.0257 14.0711L9.36285 13.4083Z" fill="white"/>
<path d="M18.9741 13.0786L19.6369 12.4158L20.6311 13.41L19.9683 14.0728L18.9741 13.0786Z" fill="white"/>
<path d="M21.0938 7.96875H22.5V8.90625H21.0938V7.96875Z" fill="white"/>
<path d="M18.975 3.79883L19.9693 2.80461L20.6321 3.46742L19.6378 4.46164L18.975 3.79883Z" fill="white"/>
<path d="M6.5625 27.1875H7.5V29.0625H6.5625V27.1875Z" fill="white"/>
<path d="M25.7812 16.875H24.7844C24.8239 16.7219 24.8439 16.5644 24.8438 16.4062V14.0625C24.8438 13.9853 24.8247 13.9094 24.7883 13.8413C24.7519 13.7733 24.6992 13.7153 24.635 13.6725L23.5007 12.9163C23.2675 12.7608 22.9966 12.6716 22.7167 12.6581C22.4368 12.6445 22.1585 12.7072 21.9114 12.8394C21.6644 12.9717 21.4578 13.1685 21.3138 13.4088C21.1698 13.6492 21.0938 13.9242 21.0938 14.2044V16.4062C21.0937 16.5634 21.1134 16.72 21.1524 16.8723C20.9232 16.8598 20.7067 16.763 20.5446 16.6004L17.8125 13.8683V12.714L18.1257 11.4613C18.8331 10.8283 19.3316 9.99545 19.5554 9.07294C19.7791 8.15043 19.7175 7.18173 19.3787 6.295C19.0399 5.40827 18.4399 4.64529 17.658 4.10702C16.8761 3.56875 15.9492 3.28055 15 3.28055C14.0507 3.28055 13.1238 3.56875 12.342 4.10702C11.5601 4.64529 10.96 5.40827 10.6212 6.295C10.2824 7.18173 10.2208 8.15043 10.4446 9.07294C10.6683 9.99545 11.1669 10.8283 11.8743 11.4613L12.1875 12.714V13.9103C12.0977 13.9723 12.0137 14.0422 11.9365 14.1193L9.45542 16.6004C9.29333 16.763 9.07681 16.8598 8.84757 16.8723C8.88662 16.72 8.90634 16.5634 8.90625 16.4062V14.2044C8.90625 13.9242 8.83019 13.6492 8.68619 13.4088C8.54219 13.1685 8.33564 12.9717 8.08858 12.8394C7.84152 12.7072 7.56321 12.6445 7.28332 12.6581C7.00343 12.6716 6.73246 12.7608 6.4993 12.9163L5.36499 13.6725C5.30078 13.7153 5.24813 13.7733 5.21172 13.8413C5.1753 13.9094 5.15625 13.9853 5.15625 14.0625V16.4062C5.15615 16.5644 5.17609 16.7219 5.21558 16.875H4.21875C3.34881 16.876 2.51478 17.222 1.89964 17.8371C1.2845 18.4523 0.93848 19.2863 0.9375 20.1562V24.8437C0.938064 25.3408 1.13579 25.8174 1.4873 26.1689C1.83881 26.5205 2.31539 26.7182 2.8125 26.7187H3.28125V29.0625H4.21875V24.8437H9.84375V29.0625H10.7812V20.3504L12.9966 18.1351L13.1745 18.4909C13.2134 18.5688 13.2733 18.6342 13.3473 18.68C13.4214 18.7258 13.5067 18.75 13.5938 18.75H16.4062C16.4933 18.75 16.5786 18.7258 16.6527 18.68C16.7267 18.6342 16.7866 18.5688 16.8255 18.4909L17.0034 18.1351L19.2188 20.3504V29.0625H20.1562V24.8437H25.7812V29.0625H26.7188V26.7187H27.1875C27.6846 26.7182 28.1612 26.5205 28.5127 26.1689C28.8642 25.8174 29.0619 25.3408 29.0625 24.8437V20.1562C29.0615 19.2863 28.7155 18.4523 28.1004 17.8371C27.4852 17.222 26.6512 16.876 25.7812 16.875ZM22.9688 17.3437C22.7202 17.3435 22.4819 17.2446 22.3062 17.0688C22.1304 16.8931 22.0315 16.6548 22.0312 16.4062V15.4687H23.9062V16.4062C23.906 16.6548 23.8071 16.8931 23.6313 17.0688C23.4556 17.2446 23.2173 17.3435 22.9688 17.3437ZM22.6419 13.5937C22.7625 13.5936 22.8804 13.6293 22.9807 13.6963L23.9062 14.3134V14.5312H22.0312V14.2044C22.0314 14.0425 22.0958 13.8873 22.2103 13.7728C22.3248 13.6583 22.48 13.5939 22.6419 13.5937ZM11.25 7.96875C11.2499 7.33793 11.4089 6.71727 11.7123 6.16422C12.0158 5.61117 12.4538 5.14361 12.986 4.80481C13.5181 4.46601 14.1271 4.26692 14.7566 4.22597C15.3861 4.18502 16.0157 4.30353 16.5872 4.57053C17.1588 4.83754 17.6537 5.2444 18.0262 5.75348C18.3988 6.26255 18.6369 6.85737 18.7185 7.48289C18.8001 8.10841 18.7226 8.74442 18.4931 9.33203C18.2637 9.91965 17.8897 10.4399 17.4058 10.8446C17.3299 10.9082 17.2761 10.9942 17.2521 11.0902L16.9778 12.1875H16.4908L17.3374 7.10833C17.3528 7.01596 17.3401 6.92111 17.3011 6.83598C17.2621 6.75085 17.1985 6.67936 17.1185 6.63071C17.0385 6.58207 16.9458 6.5585 16.8522 6.56305C16.7587 6.5676 16.6687 6.60005 16.5938 6.65623L15 7.85156L13.4062 6.65623C13.3313 6.60005 13.2413 6.5676 13.1478 6.56305C13.0542 6.5585 12.9615 6.58207 12.8815 6.63071C12.8015 6.67936 12.7379 6.75085 12.6989 6.83598C12.6599 6.92111 12.6472 7.01596 12.6626 7.10833L13.5092 12.1875H13.0222L12.7479 11.0902C12.7239 10.9942 12.6701 10.9082 12.5941 10.8446C12.173 10.493 11.8344 10.0532 11.6021 9.55622C11.3698 9.05926 11.2496 8.51732 11.25 7.96875ZM14.4596 12.1875L13.7797 8.1082L14.7188 8.81252C14.7999 8.87336 14.8986 8.90625 15 8.90625C15.1014 8.90625 15.2001 8.87336 15.2812 8.81252L16.2203 8.1082L15.5404 12.1875H14.4596ZM13.125 13.125H16.875V15.9375H14.9144C15.0006 15.6683 15.0221 15.3826 14.9771 15.1035C14.932 14.8244 14.8218 14.5599 14.6552 14.3315C14.4887 14.1031 14.2706 13.9173 14.0187 13.7891C13.7667 13.6609 13.4881 13.5939 13.2054 13.5937C13.1785 13.5937 13.1517 13.5945 13.125 13.5957V13.125ZM12.5994 14.7823C12.6789 14.7026 12.7734 14.6394 12.8774 14.5962C12.9814 14.553 13.0929 14.5308 13.2055 14.5308C13.3181 14.5307 13.4297 14.5529 13.5337 14.5959C13.6377 14.639 13.7323 14.7022 13.8119 14.7818C13.8915 14.8614 13.9547 14.9559 13.9978 15.06C14.0408 15.164 14.063 15.2755 14.063 15.3881C14.0629 15.5007 14.0407 15.6122 13.9975 15.7163C13.9544 15.8203 13.8912 15.9148 13.8115 15.9943L12.1875 17.6183L10.9754 16.4062L12.5994 14.7823ZM7.03125 17.3437C6.7827 17.3435 6.5444 17.2446 6.36865 17.0688C6.1929 16.8931 6.09403 16.6548 6.09375 16.4062V15.4687H7.96875V16.4062C7.96847 16.6548 7.8696 16.8931 7.69385 17.0688C7.5181 17.2446 7.2798 17.3435 7.03125 17.3437ZM7.01932 13.6963C7.11129 13.635 7.21818 13.5998 7.32858 13.5945C7.43898 13.5891 7.54876 13.6139 7.64621 13.666C7.74366 13.7182 7.82513 13.7958 7.88193 13.8906C7.93873 13.9854 7.96874 14.0939 7.96875 14.2044V14.5312H6.09375V14.3134L7.01932 13.6963ZM1.875 24.8437V22.5H3.28125V25.7812H2.8125C2.56395 25.781 2.32566 25.6821 2.1499 25.5063C1.97415 25.3306 1.87528 25.0923 1.875 24.8437ZM9.98105 19.8248C9.89314 19.9127 9.84375 20.0319 9.84375 20.1562V23.9062H4.21875V20.625H3.28125V21.5625H1.875V20.1562C1.87571 19.5349 2.12286 18.9391 2.56225 18.4997C3.00163 18.0604 3.59737 17.8132 4.21875 17.8125H5.79304C6.13479 18.1145 6.57516 18.2812 7.03125 18.2812C7.48734 18.2812 7.92771 18.1145 8.26946 17.8125H8.79252C9.03885 17.8132 9.28286 17.765 9.51043 17.6707C9.73801 17.5765 9.94462 17.438 10.1183 17.2634L10.3125 17.0692L11.5246 18.2812L9.98105 19.8248ZM16.1165 17.8125H13.8835L13.6954 17.4363L14.2566 16.875H16.5853L16.1165 17.8125ZM17.763 16.6159L17.7626 16.6157C17.7954 16.5508 17.8125 16.479 17.8125 16.4062V15.1942L19.0246 16.4062L17.8125 17.6183L17.4454 17.2512L17.763 16.6159ZM27.1875 25.7812H26.7188V22.5H28.125V24.8437C28.1247 25.0923 28.0259 25.3306 27.8501 25.5063C27.6743 25.6821 27.4361 25.781 27.1875 25.7812ZM28.125 21.5625H26.7188V20.625H25.7812V23.9062H20.1562V20.1562C20.1562 20.0319 20.1069 19.9127 20.0189 19.8248L18.4754 18.2812L19.6875 17.0692L19.8817 17.2634C20.0554 17.438 20.262 17.5765 20.4896 17.6707C20.7171 17.765 20.9612 17.8132 21.2075 17.8125H21.7305C22.0723 18.1145 22.5127 18.2812 22.9688 18.2812C23.4248 18.2812 23.8652 18.1145 24.207 17.8125H25.7812C26.4026 17.8132 26.9984 18.0604 27.4378 18.4997C27.8771 18.9391 28.1243 19.5349 28.125 20.1562V21.5625Z" fill="white"/>
<path d="M22.5 27.1875H23.4375V29.0625H22.5V27.1875Z" fill="white"/>
</svg>
