<svg width="52" height="52" viewBox="0 0 52 52" fill="none" xmlns="http://www.w3.org/2000/svg" style="">
<path d="M1 1H51V51H1V38.5" stroke="url(#paint0_linear)" stroke-width="2" class="DdIYjglO_0"></path>
<path d="M39.1221 27.0716C38.2273 26.2719 37.0236 25.8927 35.8226 26.0272C33.9237 26.2419 32.3703 27.7723 32.1289 29.6661C31.9193 31.3114 32.6529 32.885 34.0432 33.7733C34.2861 33.9284 34.437 34.228 34.437 34.5547V35.375C34.437 36.4091 35.2779 37.25 36.312 37.25C37.3461 37.25 38.187 36.4091 38.187 35.375V34.5355C38.187 34.2167 38.3379 33.9294 38.5911 33.7667C39.8061 32.9858 40.5312 31.6592 40.5312 30.2187C40.5312 29.0183 40.0175 27.8712 39.1221 27.0716ZM36.3125 36.3125C35.7954 36.3125 35.375 35.892 35.375 35.375H37.25C37.25 35.892 36.8295 36.3125 36.3125 36.3125ZM35.8437 30.2187C35.8437 29.96 36.0542 29.75 36.3125 29.75C36.5707 29.75 36.7812 29.96 36.7812 30.2187C36.7812 30.4775 36.5707 30.6875 36.3125 30.6875C36.0542 30.6875 35.8437 30.4775 35.8437 30.2187ZM38.0843 32.9787C37.5889 33.297 37.2861 33.838 37.2556 34.4375H36.7812V31.5387C37.3254 31.3447 37.7187 30.8291 37.7187 30.2187C37.7187 29.4434 37.0878 28.8125 36.3125 28.8125C35.5371 28.8125 34.9062 29.4434 34.9062 30.2187C34.9062 30.8291 35.2995 31.3447 35.8437 31.5387V34.4375H35.3679C35.3332 33.8323 35.0346 33.2942 34.5481 32.983C33.4662 32.2916 32.8957 31.0662 33.0589 29.7847C33.2464 28.3142 34.4529 27.1259 35.9276 26.9595C36.0579 26.9445 36.1878 26.937 36.3162 26.937C37.1248 26.937 37.8879 27.2262 38.4968 27.7705C39.1939 28.393 39.5937 29.2855 39.5937 30.2187C39.5937 31.3391 39.0293 32.3708 38.0843 32.9787Z" fill="white" class="DdIYjglO_1"></path>
<path d="M18.4972 27.0716C17.6023 26.2719 16.3995 25.8927 15.1976 26.0272C13.2987 26.2419 11.7453 27.7723 11.5039 29.6661C11.2944 31.3114 12.028 32.885 13.4183 33.7733C13.6616 33.9284 13.8125 34.228 13.8125 34.5547V35.375C13.8125 36.4091 14.6534 37.25 15.6875 37.25C16.7216 37.25 17.5625 36.4091 17.5625 35.375V34.5355C17.5625 34.2167 17.7134 33.9294 17.9666 33.7667C19.1811 32.9858 19.9062 31.6592 19.9062 30.2187C19.9062 29.0183 19.3925 27.8712 18.4972 27.0716ZM15.6875 36.3125C15.1705 36.3125 14.75 35.892 14.75 35.375H16.625C16.625 35.892 16.2045 36.3125 15.6875 36.3125ZM15.2187 30.2187C15.2187 29.96 15.4292 29.75 15.6875 29.75C15.9458 29.75 16.1562 29.96 16.1562 30.2187C16.1562 30.4775 15.9458 30.6875 15.6875 30.6875C15.4292 30.6875 15.2187 30.4775 15.2187 30.2187ZM17.4594 32.9787C16.9639 33.297 16.6611 33.838 16.6306 34.4375H16.1562V31.5387C16.7005 31.3447 17.0937 30.8291 17.0937 30.2187C17.0937 29.4434 16.4628 28.8125 15.6875 28.8125C14.9122 28.8125 14.2812 29.4434 14.2812 30.2187C14.2812 30.8291 14.6745 31.3447 15.2187 31.5387V34.4375H14.743C14.7083 33.8323 14.4097 33.2942 13.9231 32.983C12.8412 32.2916 12.2708 31.0662 12.4339 29.7847C12.6214 28.3142 13.828 27.1259 15.3026 26.9595C15.433 26.9445 15.5628 26.937 15.6912 26.937C16.4998 26.937 17.263 27.2262 17.8719 27.7705C18.5689 28.393 18.9687 29.2855 18.9687 30.2187C18.9687 31.3391 18.4044 32.3708 17.4594 32.9787Z" fill="white" class="DdIYjglO_2"></path>
<path d="M26 17.0938C25.5439 17.0938 25.1272 17.3244 24.8853 17.7111L22.7188 21.178V37.25C22.7188 39.0589 24.1906 40.5312 26 40.5312C27.8094 40.5312 29.2813 39.0589 29.2813 37.25V21.178L27.1147 17.7111C26.8728 17.3244 26.4561 17.0938 26 17.0938ZM25.6803 18.2084C25.8186 17.9867 26.1809 17.9867 26.3192 18.2084L28.1413 21.1236L27.0294 21.6795L26 20.6497L24.9702 21.6795L23.8583 21.1236L25.6803 18.2084ZM23.6563 22.0709L24.5938 22.5397V35.8438H23.6563V22.0709ZM25.5313 22.4441L26 21.9753L26.4688 22.4441V35.8438H25.5313V22.4441ZM27.4063 22.5397L28.3438 22.0709V35.8438H27.4063V22.5397ZM26 39.5938C24.7077 39.5938 23.6563 38.5423 23.6563 37.25V36.7812H28.3438V37.25C28.3438 38.5423 27.2924 39.5938 26 39.5938Z" fill="white" class="DdIYjglO_3"></path>
<path d="M13.3438 15.2188C14.2147 15.2188 14.9427 14.6192 15.1522 13.8125H24.125V14.4477C19.0714 15.3383 15.2188 19.7572 15.2188 25.0625H16.1562C16.1562 19.6348 20.5719 15.2188 26 15.2188C31.4281 15.2188 35.8438 19.6348 35.8438 25.0625H36.7812C36.7812 19.7572 32.9286 15.3383 27.875 14.4477V13.8125H36.8478C37.0573 14.6192 37.7853 15.2188 38.6562 15.2188C39.6903 15.2188 40.5312 14.3778 40.5312 13.3438C40.5312 12.3097 39.6903 11.4688 38.6562 11.4688C37.7853 11.4688 37.0573 12.0683 36.8478 12.875H27.875V11.4688H24.125V12.875H15.1522C14.9427 12.0683 14.2147 11.4688 13.3438 11.4688C12.3097 11.4688 11.4688 12.3097 11.4688 13.3438C11.4688 14.3778 12.3097 15.2188 13.3438 15.2188ZM38.6562 12.4062C39.1733 12.4062 39.5938 12.8267 39.5938 13.3438C39.5938 13.8608 39.1733 14.2812 38.6562 14.2812C38.1392 14.2812 37.7188 13.8608 37.7188 13.3438C37.7188 12.8267 38.1392 12.4062 38.6562 12.4062ZM25.0625 12.4062H26.9375V14.2812H25.0625V12.4062ZM13.3438 12.4062C13.8608 12.4062 14.2812 12.8267 14.2812 13.3438C14.2812 13.8608 13.8608 14.2812 13.3438 14.2812C12.8267 14.2812 12.4062 13.8608 12.4062 13.3438C12.4062 12.8267 12.8267 12.4062 13.3438 12.4062Z" fill="white" class="DdIYjglO_4"></path>
<defs>
<linearGradient id="paint0_linear" x1="1" y1="26" x2="51" y2="26" gradientUnits="userSpaceOnUse">
<stop stop-color="#E0040B"></stop>
<stop offset="1" stop-color="#DD1E4B"></stop>
</linearGradient>
</defs>
<style data-made-with="vivus-instant">.DdIYjglO_0{stroke-dasharray:163 165;stroke-dashoffset:164;animation:DdIYjglO_draw_0 6800ms linear 0ms infinite,DdIYjglO_fade 6800ms linear 0ms infinite;}.DdIYjglO_1{stroke-dasharray:74 76;stroke-dashoffset:75;animation:DdIYjglO_draw_1 6800ms linear 0ms infinite,DdIYjglO_fade 6800ms linear 0ms infinite;}.DdIYjglO_2{stroke-dasharray:74 76;stroke-dashoffset:75;animation:DdIYjglO_draw_2 6800ms linear 0ms infinite,DdIYjglO_fade 6800ms linear 0ms infinite;}.DdIYjglO_3{stroke-dasharray:167 169;stroke-dashoffset:168;animation:DdIYjglO_draw_3 6800ms linear 0ms infinite,DdIYjglO_fade 6800ms linear 0ms infinite;}.DdIYjglO_4{stroke-dasharray:148 150;stroke-dashoffset:149;animation:DdIYjglO_draw_4 6800ms linear 0ms infinite,DdIYjglO_fade 6800ms linear 0ms infinite;}@keyframes DdIYjglO_draw{100%{stroke-dashoffset:0;}}@keyframes DdIYjglO_fade{0%{stroke-opacity:1;}94.11764705882354%{stroke-opacity:1;}100%{stroke-opacity:0;}}@keyframes DdIYjglO_draw_0{5.88235294117647%{stroke-dashoffset: 164}35.294117647058826%{ stroke-dashoffset: 0;}100%{ stroke-dashoffset: 0;}}@keyframes DdIYjglO_draw_1{9.558823529411764%{stroke-dashoffset: 75}38.970588235294116%{ stroke-dashoffset: 0;}100%{ stroke-dashoffset: 0;}}@keyframes DdIYjglO_draw_2{13.23529411764706%{stroke-dashoffset: 75}42.64705882352941%{ stroke-dashoffset: 0;}100%{ stroke-dashoffset: 0;}}@keyframes DdIYjglO_draw_3{16.911764705882355%{stroke-dashoffset: 168}46.32352941176471%{ stroke-dashoffset: 0;}100%{ stroke-dashoffset: 0;}}@keyframes DdIYjglO_draw_4{20.588235294117645%{stroke-dashoffset: 149}50%{ stroke-dashoffset: 0;}100%{ stroke-dashoffset: 0;}}</style></svg>
