<svg width="18" height="18" viewBox="0 0 18 18" fill="none" xmlns="http://www.w3.org/2000/svg">
<g clip-path="url(#clip0)">
<path d="M17.9787 1.34386C17.9397 0.628852 17.371 0.0602701 16.656 0.0212466C15.2133 -0.0575736 12.3901 0.0191022 9.69052 1.4154C8.31432 2.12725 6.85885 3.33412 5.69733 4.72659C5.68302 4.74375 5.6691 4.76101 5.65489 4.7782L3.01888 4.98183C2.58498 5.01537 2.19851 5.24279 1.95853 5.60575L0.160147 8.32585C-0.0218565 8.60113 -0.0507901 8.94562 0.0826982 9.24737C0.216222 9.54915 0.490581 9.75945 0.816655 9.80997L3.03751 10.1539C3.02967 10.1971 3.0218 10.2403 3.01459 10.2834C2.94066 10.7257 3.08719 11.1804 3.40662 11.4998L6.50009 14.5933C6.76492 14.8581 7.12277 15.0041 7.48945 15.0041C7.56497 15.0041 7.64091 14.9979 7.71649 14.9853C7.75966 14.9781 7.8028 14.9702 7.84597 14.9624L8.18994 17.1833C8.24046 17.5093 8.45077 17.7837 8.75248 17.9172C8.87802 17.9728 9.01087 18.0002 9.14313 18.0002C9.32886 18.0001 9.51329 17.9461 9.67403 17.8398L12.3941 16.0414C12.7571 15.8014 12.9845 15.4149 13.018 14.981L13.2216 12.3451C13.2388 12.3309 13.2561 12.3169 13.2733 12.3026C14.6658 11.1411 15.8727 9.68563 16.5845 8.3094C17.9809 5.60972 18.0574 2.7865 17.9787 1.34386ZM11.8125 15.1616L9.21053 16.8819L8.87528 14.7175C9.97497 14.3941 11.0628 13.8763 12.0992 13.1825L11.9665 14.8998C11.9583 15.0069 11.9021 15.1023 11.8125 15.1616ZM7.24585 13.8475L4.15235 10.754C4.07343 10.6751 4.03693 10.5641 4.05483 10.4573C4.1468 9.90736 4.28971 9.38385 4.46661 8.89067L9.10822 13.5323C8.51591 13.7444 7.98537 13.871 7.54257 13.9451C7.43556 13.9628 7.32478 13.9265 7.24585 13.8475ZM3.10012 6.03339L4.8173 5.90074C4.12352 6.93711 3.60567 8.02495 3.28234 9.12464L1.11798 8.78942L2.83832 6.18744C2.89759 6.09779 2.99304 6.04165 3.10012 6.03339ZM12.5978 11.4927C11.7458 12.2033 10.9188 12.7173 10.1566 13.0892L4.91053 7.84312C5.39773 6.84806 5.99232 6.01946 6.50722 5.40219C7.58212 4.11354 8.91901 3.00186 10.1751 2.35218C12.6527 1.07063 15.2631 1.00161 16.5986 1.07432C16.7754 1.08395 16.916 1.22454 16.9256 1.40134C16.9984 2.73686 16.9293 5.34721 15.6477 7.82484C14.9981 9.0809 13.8864 10.4178 12.5978 11.4927Z" fill="white"/>
<path d="M12.33 8.30542C13.0051 8.30535 13.6804 8.04836 14.1944 7.53441C14.6924 7.03642 14.9666 6.37429 14.9666 5.67004C14.9666 4.96579 14.6924 4.30365 14.1944 3.80567C13.1663 2.77759 11.4936 2.77766 10.4656 3.80567C9.96761 4.30365 9.69336 4.96579 9.69336 5.67004C9.69336 6.37429 9.96765 7.03642 10.4656 7.53441C10.9797 8.04846 11.6547 8.30549 12.33 8.30542ZM11.2113 4.5514C11.5197 4.24298 11.9248 4.08878 12.3299 4.08878C12.7351 4.08878 13.1402 4.24298 13.4486 4.5514C13.7474 4.85019 13.9119 5.24746 13.9119 5.67C13.9119 6.09255 13.7474 6.48985 13.4486 6.78864C12.8318 7.40546 11.8281 7.40542 11.2113 6.78864C10.9125 6.48985 10.7479 6.09258 10.7479 5.67004C10.7479 5.24749 10.9125 4.85019 11.2113 4.5514Z" fill="white"/>
<path d="M0.537946 14.8338C0.672911 14.8338 0.807876 14.7823 0.910814 14.6793L2.63252 12.9576C2.83847 12.7516 2.83847 12.4177 2.63252 12.2118C2.42661 12.0059 2.0927 12.0059 1.88675 12.2118L0.165079 13.9335C-0.0408662 14.1395 -0.0408662 14.4733 0.165079 14.6793C0.268017 14.7823 0.402981 14.8338 0.537946 14.8338Z" fill="white"/>
<path d="M4.21033 13.7897C4.00442 13.5837 3.67051 13.5837 3.46456 13.7897L0.154459 17.0998C-0.0514863 17.3057 -0.0514863 17.6396 0.154459 17.8456C0.257432 17.9485 0.392361 18 0.527326 18C0.662291 18 0.797256 17.9485 0.900194 17.8455L4.2103 14.5354C4.41628 14.3295 4.41628 13.9956 4.21033 13.7897Z" fill="white"/>
<path d="M5.04243 15.3675L3.32072 17.0892C3.11477 17.2952 3.11477 17.629 3.32072 17.835C3.42369 17.938 3.55866 17.9895 3.69359 17.9895C3.82852 17.9895 3.96352 17.938 4.06645 17.835L5.78816 16.1133C5.9941 15.9073 5.9941 15.5734 5.78816 15.3675C5.58225 15.1616 5.24834 15.1616 5.04243 15.3675Z" fill="white"/>
</g>
<defs>
<clipPath id="clip0">
<rect width="18" height="18" rx="4" fill="white"/>
</clipPath>
</defs>
</svg>
