<svg width="52" height="52" viewBox="0 0 52 52" fill="none" xmlns="http://www.w3.org/2000/svg" style="">
<path d="M40.9986 35.3789C40.9983 35.3745 40.9984 35.3701 40.9979 35.3658C40.9964 35.3484 40.9938 35.3313 40.9903 35.3146C40.9899 35.313 40.9894 35.3113 40.989 35.3097C40.9855 35.2943 40.9812 35.2793 40.9762 35.2647C40.9749 35.2608 40.9734 35.2569 40.9719 35.2531C40.967 35.2398 40.9614 35.2268 40.9553 35.2142C40.9542 35.212 40.9535 35.2097 40.9524 35.2075L38.6021 30.5717V15.3197C38.6021 14.8506 38.2205 14.469 37.7514 14.469H14.2485C13.7794 14.469 13.3978 14.8506 13.3978 15.3197V30.5716L11.0475 35.2074C11.0464 35.2097 11.0457 35.2119 11.0446 35.2142C11.0385 35.2268 11.033 35.2397 11.028 35.253C11.0265 35.2568 11.0251 35.2607 11.0237 35.2646C11.0188 35.2793 11.0144 35.2944 11.011 35.3097C11.0106 35.3113 11.0101 35.3129 11.0097 35.3145C11.0062 35.3312 11.0036 35.3483 11.0021 35.3657C11.0016 35.37 11.0016 35.3744 11.0014 35.3788C11.0008 35.3879 11 35.3969 11 35.4062V36.521C11 37.0782 11.4532 37.5314 12.0104 37.5314H39.9896C40.5468 37.5314 41 37.0782 41 36.521V35.4062C41 35.3969 40.9992 35.3879 40.9986 35.3789ZM14.2767 15.348H37.7233V30.2372H14.2767V15.348ZM14.1072 31.1161H37.8928L39.845 34.9667H30.1899L29.7053 33.2095C29.6066 32.8518 29.2786 32.6019 28.9075 32.6019H23.0923C22.7213 32.6019 22.3932 32.8518 22.2946 33.2094L21.81 34.9667H12.1549L14.1072 31.1161ZM29.2782 34.9667H22.7218L23.1315 33.4809H28.8685L29.2782 34.9667ZM40.1211 36.5209C40.1211 36.5934 40.0621 36.6524 39.9896 36.6524H12.0104C11.9379 36.6524 11.8789 36.5934 11.8789 36.5209V35.8456H40.1211V36.5209Z" fill="white" class="BbYxNbIz_0"></path>
<path d="M36.3463 23.5247C36.1035 23.5247 35.9068 23.7214 35.9068 23.9641V28.4205H16.0931V23.9641C16.0931 23.7214 15.8964 23.5247 15.6537 23.5247C15.4109 23.5247 15.2142 23.7214 15.2142 23.9641V28.6103C15.2142 28.9902 15.5233 29.2994 15.9034 29.2994H36.0967C36.4767 29.2994 36.7858 28.9903 36.7858 28.6103V23.9641C36.7858 23.7215 36.5891 23.5247 36.3463 23.5247Z" fill="white" class="BbYxNbIz_1"></path>
<path d="M36.0966 16.2852H15.9034C15.5234 16.2852 15.2142 16.5942 15.2142 16.9743V21.6204C15.2142 21.8632 15.4109 22.0599 15.6537 22.0599C15.8964 22.0599 16.0931 21.8632 16.0931 21.6204V17.1641H35.9068V21.6204C35.9068 21.8632 36.1035 22.0599 36.3463 22.0599C36.5891 22.0599 36.7858 21.8632 36.7858 21.6204V16.9743C36.7858 16.5942 36.4767 16.2852 36.0966 16.2852Z" fill="white" class="BbYxNbIz_2"></path>
<path d="M1 1H51V51H1V38.5" stroke="url(#paint0_linear)" stroke-width="2" class="BbYxNbIz_3"></path>
<defs>
<linearGradient id="paint0_linear" x1="1" y1="26" x2="51" y2="26" gradientUnits="userSpaceOnUse">
<stop stop-color="#E0040B"></stop>
<stop offset="1" stop-color="#DD1E4B"></stop>
</linearGradient>
</defs>
<style data-made-with="vivus-instant">.BbYxNbIz_0{stroke-dasharray:315 317;stroke-dashoffset:316;animation:BbYxNbIz_draw_0 6800ms linear 0ms infinite,BbYxNbIz_fade 6800ms linear 0ms infinite;}.BbYxNbIz_1{stroke-dasharray:64 66;stroke-dashoffset:65;animation:BbYxNbIz_draw_1 6800ms linear 0ms infinite,BbYxNbIz_fade 6800ms linear 0ms infinite;}.BbYxNbIz_2{stroke-dasharray:64 66;stroke-dashoffset:65;animation:BbYxNbIz_draw_2 6800ms linear 0ms infinite,BbYxNbIz_fade 6800ms linear 0ms infinite;}.BbYxNbIz_3{stroke-dasharray:163 165;stroke-dashoffset:164;animation:BbYxNbIz_draw_3 6800ms linear 0ms infinite,BbYxNbIz_fade 6800ms linear 0ms infinite;}@keyframes BbYxNbIz_draw{100%{stroke-dashoffset:0;}}@keyframes BbYxNbIz_fade{0%{stroke-opacity:1;}94.11764705882354%{stroke-opacity:1;}100%{stroke-opacity:0;}}@keyframes BbYxNbIz_draw_0{5.88235294117647%{stroke-dashoffset: 316}35.294117647058826%{ stroke-dashoffset: 0;}100%{ stroke-dashoffset: 0;}}@keyframes BbYxNbIz_draw_1{10.784313725490195%{stroke-dashoffset: 65}40.19607843137255%{ stroke-dashoffset: 0;}100%{ stroke-dashoffset: 0;}}@keyframes BbYxNbIz_draw_2{15.68627450980392%{stroke-dashoffset: 65}45.09803921568627%{ stroke-dashoffset: 0;}100%{ stroke-dashoffset: 0;}}@keyframes BbYxNbIz_draw_3{20.588235294117645%{stroke-dashoffset: 164}50%{ stroke-dashoffset: 0;}100%{ stroke-dashoffset: 0;}}</style></svg>
