<svg width="52" height="52" viewBox="0 0 52 52" fill="none" xmlns="http://www.w3.org/2000/svg" style="">
<path d="M1 1H51V51H1V38.5" stroke="url(#paint0_linear)" stroke-width="2" class="pZfdtnXL_0"></path>
<g clip-path="url(#clip0)">
<path d="M38.5729 20.8777C38.5728 20.8777 38.5728 20.8777 38.5728 20.8777L38.5718 20.8767L36.6354 20.6004C36.3632 20.5616 36.174 20.3096 36.2127 20.0374C36.2313 19.9066 36.3012 19.7886 36.4069 19.7094L37.9719 18.5356C38.1919 18.3706 38.2364 18.0586 38.0715 17.8387L36.2794 15.4493C36.1145 15.2293 35.8025 15.1848 35.5825 15.3497L34.018 16.5235C33.7989 16.6897 33.4867 16.6469 33.3205 16.4279C33.2398 16.3215 33.2052 16.1872 33.2245 16.0551L33.5013 14.1187C33.5403 13.8465 33.3513 13.5943 33.0792 13.5552C33.079 13.5552 33.0788 13.5552 33.0786 13.5552L30.1238 13.133C29.8517 13.094 29.5993 13.2829 29.5603 13.5551C29.5603 13.5551 29.5603 13.5551 29.5603 13.5552L29.2835 15.4916C29.2447 15.7637 28.9927 15.953 28.7205 15.9142C28.5897 15.8956 28.4717 15.8257 28.3924 15.7201L27.2191 14.155C27.0542 13.9351 26.7422 13.8905 26.5222 14.0555L25.0264 15.178C24.3496 15.106 23.6672 15.106 22.9904 15.178C18.5585 15.6845 15.0829 19.219 14.6509 23.6588C14.6375 23.7997 14.6325 23.9396 14.6255 24.0795H14.4762C14.24 24.0799 14.0366 24.2463 13.9894 24.4777L13.6454 26.1134L12.2675 25.1632C12.0697 25.0267 11.8027 25.051 11.6328 25.2209L10.1394 26.7143C9.96982 26.8841 9.94555 27.1508 10.0817 27.3485L11.0275 28.7239L9.39126 29.0678C9.1624 29.118 8.9995 29.3209 8.99999 29.5552V31.5463C8.99987 31.7818 9.16482 31.9851 9.39524 32.0337L11.0315 32.3777L10.0857 33.753C9.94953 33.9507 9.9738 34.2174 10.1434 34.3872L11.6368 35.8806C11.8067 36.0505 12.0737 36.0748 12.2715 35.9384L13.6469 34.9901L13.9908 36.6263C14.0381 36.8577 14.2415 37.0241 14.4777 37.0245H16.4689C16.7043 37.0247 16.9077 36.8597 16.9562 36.6293L17.3002 34.993L18.6756 35.9388C18.8732 36.075 19.1399 36.0507 19.3097 35.8811L20.0828 35.1055V36.5243C20.0851 37.2324 20.4644 37.8857 21.0784 38.2386V41.0044C21.0784 42.1041 21.9699 42.9955 23.0696 42.9955H25.0607C26.1604 42.9955 27.0519 42.1041 27.0519 41.0044V38.2386C27.6659 37.8857 28.0452 37.2324 28.0475 36.5243V34.554C28.061 33.725 28.4947 32.9596 29.1989 32.522C29.612 32.254 30.0037 31.9544 30.3707 31.626L29.7066 30.8843C29.3784 31.1785 29.0277 31.4466 28.6578 31.6862C27.6693 32.3066 27.0643 33.387 27.0519 34.554V36.5243C27.0519 37.0741 26.6062 37.5198 26.0563 37.5198H22.074C21.5241 37.5198 21.0784 37.0741 21.0784 36.5243V34.5127C21.0669 33.3678 20.4713 32.3082 19.4994 31.7031C15.554 29.224 14.3652 24.0159 16.8444 20.0705C18.3825 17.6226 21.067 16.1326 23.9581 16.1223C23.9507 16.14 23.9442 16.1581 23.9387 16.1765C23.9202 16.3072 23.9544 16.4399 24.0338 16.5454L25.2071 18.11C25.3308 18.2701 25.3427 18.49 25.2369 18.6625C25.1351 18.8361 24.9383 18.9308 24.7392 18.9019L22.8027 18.6252C22.5306 18.5862 22.2784 18.7751 22.2393 19.0472C22.2393 19.0474 22.2392 19.0476 22.2392 19.0478L21.8166 22.0042C21.7776 22.2763 21.9666 22.5285 22.2387 22.5676C22.2389 22.5676 22.2391 22.5677 22.2392 22.5677L24.1757 22.8445C24.4478 22.8832 24.637 23.1353 24.5983 23.4075C24.5797 23.5382 24.5098 23.6562 24.4041 23.7355L22.8396 24.9088C22.6196 25.0737 22.5751 25.3857 22.74 25.6057L24.5321 27.9951C24.697 28.2151 25.009 28.2596 25.229 28.0947L26.794 26.9214C27.0142 26.7567 27.3262 26.8017 27.4908 27.0219C27.5696 27.1273 27.6035 27.2595 27.585 27.3898L27.3087 29.3262C27.2697 29.5983 27.4586 29.8506 27.7308 29.8897C27.7308 29.8897 27.7308 29.8897 27.7309 29.8897L30.6878 30.3123C30.711 30.3153 30.7345 30.3168 30.7579 30.3168C31.0058 30.3171 31.216 30.135 31.2513 29.8897L31.5275 27.9533C31.5663 27.6811 31.8184 27.4919 32.0905 27.5307C32.2213 27.5493 32.3393 27.6191 32.4186 27.7248L33.5924 29.2894C33.7573 29.5093 34.0693 29.5539 34.2893 29.3889L36.6787 27.5969C36.8986 27.4319 36.9432 27.1199 36.7782 26.9L35.6049 25.3354C35.4818 25.175 35.4699 24.9555 35.5751 24.7829C35.6747 24.6069 35.8733 24.5116 36.0729 24.5439L38.0093 24.8202C38.2814 24.8593 38.5337 24.6703 38.5728 24.3982C38.5728 24.3981 38.5728 24.3981 38.5728 24.3981L38.9949 21.4412C39.034 21.169 38.8451 20.9168 38.5729 20.8777ZM22.074 38.5154H26.0563V39.511H22.074V38.5154ZM22.074 40.5066H26.0563V41.0044C26.0563 41.5542 25.6106 42 25.0607 42H23.0696C22.5197 42 22.074 41.5542 22.074 41.0044V40.5066ZM18.1111 31.9222C18.3829 32.1444 18.6668 32.3514 18.9618 32.5419C19.4321 32.8392 19.7862 33.2889 19.9648 33.8158L18.8971 34.8815L17.8632 34.1687C17.4104 33.8567 16.7905 33.9708 16.4784 34.4236C16.4036 34.5322 16.3511 34.6545 16.324 34.7835L16.0632 36.0265H14.8799L14.6191 34.7855C14.5058 34.2474 13.9778 33.903 13.4398 34.0163C13.3108 34.0434 13.1885 34.0959 13.0799 34.1707L12.0455 34.8815L11.1385 33.9766L11.8508 32.9431C12.1631 32.4906 12.0494 31.8706 11.5968 31.5583C11.4882 31.4833 11.3657 31.4307 11.2366 31.4035L9.99558 31.1421V29.9594L11.2366 29.698C11.7744 29.584 12.118 29.0555 12.004 28.5176C11.9769 28.39 11.9251 28.2689 11.8513 28.1614L11.1385 27.125L12.0455 26.22L13.0804 26.9328C13.5333 27.2445 14.1533 27.13 14.4649 26.6771C14.5396 26.5686 14.592 26.4464 14.6191 26.3175L14.7062 25.9034C14.7859 26.477 14.918 27.042 15.1009 27.5914C13.463 27.7866 12.2935 29.2728 12.4888 30.9107C12.684 32.5486 14.1702 33.7181 15.8081 33.5229C16.7941 33.4053 17.6572 32.8054 18.1111 31.9222ZM17.338 31.2208C16.9663 32.254 15.8274 32.7903 14.7942 32.4186C13.7609 32.0469 13.2247 30.908 13.5963 29.8748C13.8807 29.0843 14.6312 28.5579 15.4712 28.5596C15.4777 28.5596 15.4837 28.5596 15.4901 28.5596C15.9479 29.5466 16.5731 30.447 17.338 31.2208ZM37.6548 23.7629L36.2112 23.5568C35.3947 23.4402 34.6383 24.0076 34.5217 24.824C34.4657 25.2161 34.5678 25.6144 34.8055 25.9313L35.6801 27.0976L34.0872 28.2923L33.2121 27.1265C32.7172 26.4666 31.7812 26.3327 31.1214 26.8275C30.8045 27.0651 30.595 27.4188 30.5389 27.8109L30.3373 29.2565L28.3666 28.9747L28.5726 27.5312C28.6896 26.7147 28.1225 25.9581 27.306 25.8412C26.9137 25.785 26.5152 25.8871 26.1982 26.1249L25.0319 26.9995L23.8372 25.4066L25.003 24.5315C25.6629 24.0367 25.7967 23.1006 25.3019 22.4408C25.0643 22.124 24.7106 21.9145 24.3185 21.8583L22.8749 21.6522L23.1567 19.6815L24.6003 19.8876C25.4167 20.0045 26.1733 19.4374 26.2902 18.6209C26.3464 18.2286 26.2443 17.8301 26.0065 17.5131L25.1289 16.3458L26.7219 15.1511L27.597 16.3174C28.0918 16.9773 29.0278 17.1111 29.6876 16.6163C30.0045 16.3788 30.214 16.025 30.2701 15.633L30.4762 14.1894L32.4469 14.4706L32.2409 15.9142C32.1243 16.7307 32.6916 17.4871 33.5081 17.6037C33.9002 17.6597 34.2985 17.5577 34.6153 17.32L35.7817 16.4453L36.9763 18.0383L35.81 18.9134C35.1501 19.4082 35.0163 20.3442 35.5111 21.0041C35.7487 21.3209 36.1024 21.5304 36.4945 21.5865L37.9381 21.7926L37.6548 23.7629Z" fill="white" class="pZfdtnXL_1"></path>
<path d="M30.405 17.7397C28.2057 17.7397 26.4227 19.5227 26.4227 21.7221C26.4227 23.9214 28.2057 25.7044 30.405 25.7044C32.6044 25.7044 34.3874 23.9214 34.3874 21.7221C34.3849 19.5237 32.6034 17.7422 30.405 17.7397ZM30.405 24.7088C28.7555 24.7088 27.4183 23.3716 27.4183 21.7221C27.4183 20.0725 28.7555 18.7353 30.405 18.7353C32.0546 18.7353 33.3918 20.0725 33.3918 21.7221C33.3898 23.3708 32.0538 24.7069 30.405 24.7088Z" fill="white" class="pZfdtnXL_2"></path>
<path d="M24.563 35.031H23.5674V36.5244H24.563V35.031Z" fill="white" class="pZfdtnXL_3"></path>
<path d="M21.8878 30.1421C18.8149 28.9416 17.2969 25.4774 18.4974 22.4045C18.9626 21.2137 19.7975 20.2037 20.8793 19.5227L20.3471 18.6804C17.0906 20.732 16.1137 25.0351 18.1653 28.2916C18.9599 29.5529 20.1379 30.5261 21.5264 31.0684C22.7555 31.5394 23.567 32.7191 23.5673 34.0353H24.5629C24.5645 32.3084 23.5003 30.7598 21.8878 30.1421Z" fill="white" class="pZfdtnXL_4"></path>
<path d="M37.0077 31.5464H33.5232V32.542H37.0077V31.5464Z" fill="white" class="pZfdtnXL_5"></path>
<path d="M33.3441 34.1504L32.7068 34.9153L35.6938 37.4038L36.3311 36.6389L33.3441 34.1504Z" fill="white" class="pZfdtnXL_6"></path>
<path d="M31.532 35.5288H30.5364V39.0133H31.532V35.5288Z" fill="white" class="pZfdtnXL_7"></path>
<path d="M13.4904 20.6096L9.50831 21.605L9.74962 22.5703L13.7317 21.5749L13.4904 20.6096Z" fill="white" class="pZfdtnXL_8"></path>
<path d="M10.9136 15.7106L10.3352 16.5203L13.8195 19.009L14.3978 18.1993L10.9136 15.7106Z" fill="white" class="pZfdtnXL_9"></path>
<path d="M15.5649 13.0041L14.6003 13.2507L15.6184 17.2328L16.583 16.9861L15.5649 13.0041Z" fill="white" class="pZfdtnXL_10"></path>
<path d="M-1 3H49V53H-1V40.5" stroke="url(#paint1_linear)" stroke-width="2" class="pZfdtnXL_11"></path>
</g>
<defs>
<linearGradient id="paint0_linear" x1="1" y1="26" x2="51" y2="26" gradientUnits="userSpaceOnUse">
<stop stop-color="#E0040B"></stop>
<stop offset="1" stop-color="#DD1E4B"></stop>
</linearGradient>
<linearGradient id="paint1_linear" x1="-1" y1="28" x2="49" y2="28" gradientUnits="userSpaceOnUse">
<stop stop-color="#E0040B"></stop>
<stop offset="1" stop-color="#DD1E4B"></stop>
</linearGradient>
<clipPath id="clip0">
<path width="30" height="30" fill="white" d="M9 13 L39 13 L39 43 L9 43 Z" class="pZfdtnXL_12"></path>
</clipPath>
</defs>
<style data-made-with="vivus-instant">.pZfdtnXL_0{stroke-dasharray:163 165;stroke-dashoffset:164;animation:pZfdtnXL_draw_0 6800ms linear 0ms infinite,pZfdtnXL_fade 6800ms linear 0ms infinite;}.pZfdtnXL_1{stroke-dasharray:336 338;stroke-dashoffset:337;animation:pZfdtnXL_draw_1 6800ms linear 0ms infinite,pZfdtnXL_fade 6800ms linear 0ms infinite;}.pZfdtnXL_2{stroke-dasharray:44 46;stroke-dashoffset:45;animation:pZfdtnXL_draw_2 6800ms linear 0ms infinite,pZfdtnXL_fade 6800ms linear 0ms infinite;}.pZfdtnXL_3{stroke-dasharray:5 7;stroke-dashoffset:6;animation:pZfdtnXL_draw_3 6800ms linear 0ms infinite,pZfdtnXL_fade 6800ms linear 0ms infinite;}.pZfdtnXL_4{stroke-dasharray:40 42;stroke-dashoffset:41;animation:pZfdtnXL_draw_4 6800ms linear 0ms infinite,pZfdtnXL_fade 6800ms linear 0ms infinite;}.pZfdtnXL_5{stroke-dasharray:9 11;stroke-dashoffset:10;animation:pZfdtnXL_draw_5 6800ms linear 0ms infinite,pZfdtnXL_fade 6800ms linear 0ms infinite;}.pZfdtnXL_6{stroke-dasharray:10 12;stroke-dashoffset:11;animation:pZfdtnXL_draw_6 6800ms linear 0ms infinite,pZfdtnXL_fade 6800ms linear 0ms infinite;}.pZfdtnXL_7{stroke-dasharray:9 11;stroke-dashoffset:10;animation:pZfdtnXL_draw_7 6800ms linear 0ms infinite,pZfdtnXL_fade 6800ms linear 0ms infinite;}.pZfdtnXL_8{stroke-dasharray:11 13;stroke-dashoffset:12;animation:pZfdtnXL_draw_8 6800ms linear 0ms infinite,pZfdtnXL_fade 6800ms linear 0ms infinite;}.pZfdtnXL_9{stroke-dasharray:11 13;stroke-dashoffset:12;animation:pZfdtnXL_draw_9 6800ms linear 0ms infinite,pZfdtnXL_fade 6800ms linear 0ms infinite;}.pZfdtnXL_10{stroke-dasharray:11 13;stroke-dashoffset:12;animation:pZfdtnXL_draw_10 6800ms linear 0ms infinite,pZfdtnXL_fade 6800ms linear 0ms infinite;}.pZfdtnXL_11{stroke-dasharray:163 165;stroke-dashoffset:164;animation:pZfdtnXL_draw_11 6800ms linear 0ms infinite,pZfdtnXL_fade 6800ms linear 0ms infinite;}.pZfdtnXL_12{stroke-dasharray:120 122;stroke-dashoffset:121;animation:pZfdtnXL_draw_12 6800ms linear 0ms infinite,pZfdtnXL_fade 6800ms linear 0ms infinite;}@keyframes pZfdtnXL_draw{100%{stroke-dashoffset:0;}}@keyframes pZfdtnXL_fade{0%{stroke-opacity:1;}94.11764705882354%{stroke-opacity:1;}100%{stroke-opacity:0;}}@keyframes pZfdtnXL_draw_0{5.88235294117647%{stroke-dashoffset: 164}35.294117647058826%{ stroke-dashoffset: 0;}100%{ stroke-dashoffset: 0;}}@keyframes pZfdtnXL_draw_1{7.107843137254902%{stroke-dashoffset: 337}36.51960784313726%{ stroke-dashoffset: 0;}100%{ stroke-dashoffset: 0;}}@keyframes pZfdtnXL_draw_2{8.333333333333332%{stroke-dashoffset: 45}37.745098039215684%{ stroke-dashoffset: 0;}100%{ stroke-dashoffset: 0;}}@keyframes pZfdtnXL_draw_3{9.558823529411764%{stroke-dashoffset: 6}38.970588235294116%{ stroke-dashoffset: 0;}100%{ stroke-dashoffset: 0;}}@keyframes pZfdtnXL_draw_4{10.784313725490195%{stroke-dashoffset: 41}40.19607843137255%{ stroke-dashoffset: 0;}100%{ stroke-dashoffset: 0;}}@keyframes pZfdtnXL_draw_5{12.009803921568626%{stroke-dashoffset: 10}41.42156862745098%{ stroke-dashoffset: 0;}100%{ stroke-dashoffset: 0;}}@keyframes pZfdtnXL_draw_6{13.23529411764706%{stroke-dashoffset: 11}42.64705882352941%{ stroke-dashoffset: 0;}100%{ stroke-dashoffset: 0;}}@keyframes pZfdtnXL_draw_7{14.460784313725489%{stroke-dashoffset: 10}43.87254901960784%{ stroke-dashoffset: 0;}100%{ stroke-dashoffset: 0;}}@keyframes pZfdtnXL_draw_8{15.68627450980392%{stroke-dashoffset: 12}45.09803921568627%{ stroke-dashoffset: 0;}100%{ stroke-dashoffset: 0;}}@keyframes pZfdtnXL_draw_9{16.911764705882355%{stroke-dashoffset: 12}46.32352941176471%{ stroke-dashoffset: 0;}100%{ stroke-dashoffset: 0;}}@keyframes pZfdtnXL_draw_10{18.137254901960784%{stroke-dashoffset: 12}47.549019607843135%{ stroke-dashoffset: 0;}100%{ stroke-dashoffset: 0;}}@keyframes pZfdtnXL_draw_11{19.362745098039213%{stroke-dashoffset: 164}48.77450980392157%{ stroke-dashoffset: 0;}100%{ stroke-dashoffset: 0;}}@keyframes pZfdtnXL_draw_12{20.588235294117645%{stroke-dashoffset: 121}50%{ stroke-dashoffset: 0;}100%{ stroke-dashoffset: 0;}}</style></svg>
