<svg width="170" height="44" viewBox="0 0 170 44" fill="none" xmlns="http://www.w3.org/2000/svg">
<circle cx="76" cy="4" r="4" fill="#E0040C"/>
<circle cx="76" cy="22" r="4" fill="#E0040C"/>
<circle cx="76" cy="40" r="4" fill="#E0040C"/>
<circle cx="94" cy="4" r="4" fill="#E0040C"/>
<circle cx="94" cy="22" r="4" fill="#E0040C"/>
<circle cx="94" cy="40" r="4" fill="#E0040C"/>
<circle cx="112" cy="4" r="4" fill="#E0040C"/>
<circle cx="112" cy="22" r="4" fill="#E0040C"/>
<circle cx="112" cy="40" r="4" fill="#E0040C"/>
<circle cx="130" cy="4" r="4" fill="#E0040C"/>
<circle cx="130" cy="22" r="4" fill="#E0040C"/>
<circle cx="130" cy="40" r="4" fill="#E0040C"/>
<circle cx="4" cy="4" r="4" fill="#E0040C"/>
<circle cx="4" cy="22" r="4" fill="#E0040C"/>
<circle cx="4" cy="40" r="4" fill="#E0040C"/>
<circle cx="22" cy="4" r="4" fill="#E0040C"/>
<circle cx="22" cy="22" r="4" fill="#E0040C"/>
<circle cx="22" cy="40" r="4" fill="#E0040C"/>
<circle cx="40" cy="4" r="4" fill="#E0040C"/>
<circle cx="40" cy="22" r="4" fill="#E0040C"/>
<circle cx="40" cy="40" r="4" fill="#E0040C"/>
<circle cx="58" cy="4" r="4" fill="#E0040C"/>
<circle cx="58" cy="22" r="4" fill="#E0040C"/>
<circle cx="58" cy="40" r="4" fill="#E0040C"/>
<circle cx="148" cy="4" r="4" fill="#E0040C"/>
<circle cx="148" cy="22" r="4" fill="#E0040C"/>
<circle cx="148" cy="40" r="4" fill="#E0040C"/>
<circle cx="166" cy="4" r="4" fill="#E0040C"/>
<circle cx="166" cy="22" r="4" fill="#E0040C"/>
<circle cx="166" cy="40" r="4" fill="#E0040C"/>
</svg>
