<svg width="16" height="17" viewBox="0 0 16 17" fill="none" xmlns="http://www.w3.org/2000/svg">
<g clip-path="url(#clip0)">
<path d="M7.71404 16.396C6.49051 16.2221 5.41791 14.9451 4.74297 13.0592C5.71866 12.8407 6.71432 12.7234 7.71404 12.7095V16.396Z" fill="#D8D8D8"/>
<path d="M5.75931 16.0961C5.68699 16.0752 5.61494 16.0541 5.54345 16.0309C5.48313 16.0115 5.42365 15.9906 5.36418 15.9698C5.2938 15.9455 5.22371 15.9205 5.1539 15.894C5.09442 15.8713 5.0355 15.8473 4.97644 15.8233C4.9083 15.7947 4.84031 15.7662 4.77301 15.7376C4.71423 15.7117 4.65586 15.6847 4.5975 15.6574C4.53146 15.6263 4.4657 15.5946 4.40049 15.5616C4.34325 15.5325 4.28614 15.5027 4.22889 15.4722C4.16481 15.4378 4.10114 15.4028 4.03789 15.3667C3.98064 15.3343 3.92549 15.3018 3.86978 15.2683C3.80779 15.2302 3.74607 15.1921 3.68478 15.1539C3.62991 15.119 3.57517 15.0836 3.52114 15.047C3.46082 15.0064 3.40134 14.9641 3.34214 14.9218C3.28894 14.8836 3.23603 14.8457 3.18409 14.8074C3.12684 14.7633 3.0682 14.7176 3.01081 14.6718C2.95985 14.6312 2.90903 14.5908 2.8589 14.5491C2.8018 14.5016 2.74706 14.4525 2.69163 14.4033C2.64304 14.3602 2.59418 14.3175 2.5467 14.2732C2.49211 14.2222 2.43891 14.1695 2.38572 14.1171C2.33964 14.0716 2.29301 14.0268 2.24791 13.9801C2.23953 13.9715 2.23157 13.9621 2.22292 13.9532C2.84662 13.6311 3.50355 13.3782 4.18226 13.1992C4.53523 14.3249 5.1634 15.345 6.0098 16.1668C5.98662 16.1608 5.96344 16.1559 5.94026 16.1499C5.87911 16.1327 5.81907 16.1139 5.75931 16.0961Z" fill="#D8D8D8"/>
<path d="M-6.67572e-05 8.69775H3.42854C3.44153 10.0365 3.63575 11.3672 4.00589 12.6539C3.25108 12.8555 2.52266 13.1453 1.83571 13.5174C0.707828 12.158 0.0622056 10.4632 -6.67572e-05 8.69775Z" fill="#D8D8D8"/>
<path d="M7.71404 8.12541H4.00045C4.01497 6.83403 4.20444 5.55061 4.56342 4.31006C5.59747 4.54588 6.65359 4.67182 7.71404 4.68579V8.12541Z" fill="#D8D8D8"/>
<path d="M7.71404 0.427734V4.11422C6.71432 4.10012 5.71866 3.98297 4.74297 3.76446C5.41791 1.87856 6.49051 0.601566 7.71404 0.427734Z" fill="#D8D8D8"/>
<path d="M7.71404 12.1374C6.65359 12.1515 5.59747 12.2774 4.56342 12.5133C4.20444 11.2727 4.01497 9.98914 4.00045 8.69775H7.71404V12.1374Z" fill="#D8D8D8"/>
<path d="M1.83571 3.30664C2.52266 3.67874 3.25108 3.9686 4.00589 4.17021C3.63575 5.45684 3.44153 6.7876 3.42854 8.12631H-6.67572e-05C0.0623453 6.36105 0.707967 4.66616 1.83571 3.30664Z" fill="#D8D8D8"/>
<path d="M2.22207 2.87256C2.23044 2.86405 2.2384 2.85483 2.24664 2.84603C2.29188 2.7994 2.33879 2.75444 2.38487 2.70906C2.43793 2.6567 2.49084 2.60379 2.54558 2.55296C2.59291 2.50884 2.64192 2.4671 2.69051 2.42311C2.74594 2.37397 2.80137 2.3244 2.85833 2.27693C2.90776 2.23518 2.95844 2.19525 3.00871 2.15518C3.06595 2.10882 3.1246 2.06275 3.18352 2.01848C3.23518 1.97953 3.28754 1.94183 3.34018 1.90413C3.39994 1.86113 3.45997 1.81826 3.52085 1.77735C3.57433 1.74133 3.62864 1.70615 3.68295 1.67166C3.74481 1.63187 3.80652 1.59291 3.86949 1.55521C3.92464 1.52212 3.98035 1.48945 4.0362 1.45776C4.10015 1.42118 4.16424 1.38571 4.22888 1.35108C4.28613 1.32246 4.34324 1.29133 4.40048 1.2627C4.46624 1.22947 4.53257 1.1975 4.60056 1.16608C4.65781 1.13886 4.71589 1.11233 4.77481 1.0865C4.84253 1.05648 4.91095 1.02939 4.97922 1.00077C5.03814 0.976753 5.09679 0.953017 5.15627 0.930398C5.22566 0.90387 5.29603 0.879017 5.3664 0.854722C5.42588 0.833779 5.48536 0.812975 5.54568 0.793427C5.61717 0.77025 5.68865 0.749167 5.7621 0.727944C5.82158 0.710491 5.88133 0.692759 5.94151 0.676842C5.96455 0.670559 5.98801 0.665672 6.01118 0.659668C5.16478 1.48149 4.53675 2.50144 4.18365 3.62723C3.50423 3.44823 2.84633 3.19523 2.22207 2.87256Z" fill="#D8D8D8"/>
<path d="M16 8.12631H12.5714C12.5584 6.7876 12.3642 5.45684 11.9942 4.17021C12.7489 3.96874 13.4773 3.67888 14.1642 3.30664C15.2921 4.66602 15.9377 6.36105 16 8.12631Z" fill="#D8D8D8"/>
<path d="M8.28591 16.396V12.7095C9.28561 12.7236 10.2813 12.8407 11.257 13.0592C10.5822 14.9451 9.50943 16.2221 8.28591 16.396Z" fill="#D8D8D8"/>
<path d="M8.28594 8.69775H11.9995C11.985 9.98914 11.7957 11.2727 11.4365 12.5133C10.4025 12.2773 9.34652 12.1514 8.28594 12.1374V8.69775Z" fill="#D8D8D8"/>
<path d="M8.28591 0.427734C9.50943 0.601566 10.5822 1.87856 11.257 3.76446C10.2813 3.98311 9.28561 4.10025 8.28591 4.11422V0.427734Z" fill="#D8D8D8"/>
<path d="M8.28594 4.68579C9.34638 4.67182 10.4025 4.54588 11.4365 4.31006C11.7957 5.55061 11.985 6.83403 11.9995 8.12541H8.28594V4.68579Z" fill="#D8D8D8"/>
<path d="M9.99102 0.659668C10.0142 0.665672 10.0374 0.670559 10.0606 0.676562C10.1212 0.692759 10.1809 0.71077 10.2412 0.728223C10.313 0.749167 10.3842 0.77025 10.4563 0.793148C10.517 0.812835 10.5767 0.833779 10.6365 0.854583C10.7065 0.879296 10.7765 0.90387 10.8458 0.930119C10.9056 0.953017 10.9645 0.976753 11.0237 1.00105C11.0917 1.02967 11.1598 1.05829 11.227 1.08678C11.2859 1.11261 11.3441 1.13969 11.4025 1.16692C11.4685 1.19806 11.5343 1.22975 11.5995 1.2627C11.6567 1.29188 11.714 1.32176 11.7711 1.3522C11.8352 1.38655 11.8987 1.42173 11.9618 1.45776C12.0191 1.48973 12.0753 1.52254 12.1305 1.55605C12.1926 1.59347 12.254 1.63215 12.3152 1.6704C12.3702 1.70559 12.4248 1.74105 12.4788 1.77763C12.5392 1.81826 12.5986 1.86057 12.6578 1.90288C12.711 1.94099 12.7639 1.97897 12.816 2.01737C12.8745 2.06135 12.9304 2.10715 12.9893 2.1528C13.0401 2.19343 13.0914 2.23378 13.1411 2.27581C13.1983 2.323 13.2526 2.37187 13.3078 2.42074C13.3566 2.4643 13.4059 2.50661 13.4537 2.55171C13.508 2.60239 13.5609 2.65503 13.614 2.70725C13.66 2.75277 13.707 2.79772 13.7522 2.8445C13.7604 2.85316 13.7684 2.86265 13.7771 2.87145C13.1535 3.1937 12.4964 3.44656 11.8177 3.62555C11.4648 2.50047 10.837 1.48107 9.99102 0.659668Z" fill="#D8D8D8"/>
<path d="M13.6153 14.1149C13.5621 14.1672 13.5091 14.2202 13.4545 14.2711C13.4071 14.3151 13.3582 14.3568 13.3095 14.4008C13.254 14.4501 13.1986 14.4995 13.1416 14.547C13.0922 14.5885 13.0418 14.6286 12.9913 14.6688C12.934 14.7151 12.8769 14.7612 12.8163 14.8057C12.7648 14.8444 12.7124 14.8818 12.6601 14.9202C12.6003 14.9631 12.54 15.006 12.4791 15.0471C12.4257 15.0832 12.3713 15.1184 12.317 15.153C12.2552 15.1926 12.1935 15.2316 12.1305 15.2693C12.0753 15.3025 12.0196 15.3351 11.9638 15.3669C11.8998 15.4035 11.8357 15.4389 11.7711 15.4734C11.714 15.502 11.6568 15.5332 11.5995 15.5618C11.5337 15.595 11.4674 15.627 11.3994 15.6586C11.3422 15.6855 11.2841 15.712 11.2252 15.738C11.1575 15.768 11.0892 15.7951 11.0208 15.8237C10.9618 15.8478 10.9032 15.8715 10.8437 15.8941C10.7743 15.9208 10.704 15.9456 10.6336 15.9699C10.5741 15.9907 10.5146 16.0117 10.4543 16.0311C10.3828 16.0543 10.3113 16.0755 10.2379 16.0966C10.1784 16.114 10.1187 16.1317 10.0586 16.1478C10.0354 16.1541 10.012 16.159 9.98881 16.165C10.8352 15.343 11.4632 14.3231 11.8163 13.1973C12.4951 13.3764 13.1521 13.6293 13.7757 13.9517C13.7673 13.9602 13.7593 13.9694 13.751 13.9782C13.7081 14.0245 13.6619 14.0695 13.6153 14.1149Z" fill="#D8D8D8"/>
<path d="M14.1642 13.5174C13.4773 13.1453 12.7489 12.8555 11.9942 12.6539C12.3642 11.3672 12.5584 10.0365 12.5714 8.69775H16C15.9376 10.463 15.2921 12.1579 14.1642 13.5174Z" fill="#D8D8D8"/>
</g>
<defs>
<clipPath id="clip0">
<rect width="16" height="16" transform="matrix(-1 0 0 1 16 0.405273)" fill="white"/>
</clipPath>
</defs>
</svg>
