<svg width="16" height="17" viewBox="0 0 16 17" fill="none" xmlns="http://www.w3.org/2000/svg">
<path d="M15.966 12.8023C15.9207 12.666 15.6328 12.4651 15.1023 12.2002C14.9587 12.1167 14.7539 12.0032 14.489 11.8592C14.2238 11.7153 13.9831 11.5826 13.7673 11.4614C13.5511 11.3402 13.3486 11.2228 13.1593 11.1093C13.129 11.0866 13.0344 11.0204 12.8753 10.9103C12.716 10.8005 12.5817 10.7191 12.4716 10.6659C12.3618 10.6131 12.2538 10.5865 12.1477 10.5865C11.9962 10.5865 11.807 10.6945 11.5798 10.9103C11.3526 11.1263 11.1442 11.361 10.9549 11.615C10.7655 11.8689 10.5647 12.1036 10.3528 12.3195C10.1406 12.5355 9.96622 12.6434 9.83001 12.6434C9.76162 12.6434 9.67637 12.6243 9.57419 12.5867C9.47205 12.5489 9.39436 12.5164 9.34102 12.4903C9.28816 12.4636 9.19745 12.4107 9.06857 12.3309C8.93944 12.2514 8.86764 12.2078 8.85251 12.2002C7.81463 11.6243 6.92451 10.9652 6.18197 10.223C5.43967 9.4804 4.78045 8.59041 4.20469 7.55248C4.19713 7.53731 4.15346 7.46531 4.07397 7.33659C3.99437 7.20776 3.94131 7.11697 3.9148 7.0638C3.88829 7.01082 3.85609 6.93313 3.81828 6.83088C3.78046 6.72863 3.76148 6.64346 3.76148 6.5752C3.76148 6.43892 3.86946 6.26459 4.0854 6.05245C4.30129 5.84043 4.53621 5.6396 4.78992 5.45034C5.04383 5.26109 5.27851 5.05269 5.49448 4.8255C5.71038 4.5982 5.81833 4.40891 5.81833 4.25742C5.81833 4.15143 5.79182 4.04337 5.73884 3.93356C5.68582 3.82351 5.60438 3.68922 5.49448 3.53006C5.38455 3.37097 5.31827 3.27637 5.29551 3.24592C5.18199 3.05666 5.06468 2.85404 4.94332 2.63811C4.82196 2.42223 4.6895 2.1816 4.54549 1.91648C4.4016 1.65149 4.28804 1.44687 4.20461 1.30295C3.9396 0.772757 3.73887 0.484756 3.60246 0.439463C3.5494 0.416736 3.4698 0.405273 3.36384 0.405273C3.15917 0.405273 2.89217 0.443084 2.56263 0.518945C2.23298 0.594687 1.97358 0.67413 1.78415 0.757593C1.40534 0.916598 1.00385 1.37869 0.57954 2.14371C0.193167 2.85567 0 3.56035 0 4.25722C0 4.4616 0.0132546 4.66045 0.0397638 4.8538C0.0662729 5.04696 0.113639 5.26479 0.181902 5.50726C0.250046 5.74964 0.305015 5.92971 0.34657 6.04696C0.388164 6.16429 0.465821 6.37448 0.5795 6.67761C0.69302 6.98065 0.761283 7.16617 0.784011 7.23435C1.04914 7.97679 1.36355 8.6396 1.72716 9.22297C2.3254 10.1926 3.14181 11.1947 4.17591 12.2288C5.21005 13.2628 6.21198 14.0791 7.18176 14.6776C7.76508 15.0411 8.42817 15.3555 9.17054 15.6208C9.23876 15.6434 9.42429 15.7115 9.72723 15.8254C10.0303 15.939 10.2406 16.0167 10.3579 16.0583C10.4753 16.1 10.6554 16.155 10.8976 16.2233C11.1403 16.2916 11.358 16.3389 11.5512 16.3656C11.7444 16.3918 11.9433 16.4053 12.1478 16.4053C12.8446 16.4053 13.5494 16.212 14.2615 15.8257C15.0265 15.4016 15.4885 15 15.6476 14.621C15.7313 14.4317 15.8105 14.1723 15.8863 13.8426C15.9623 13.5132 16 13.2462 16 13.0416C16.0002 12.9352 15.9888 12.8558 15.966 12.8023Z" fill="#D8D8D8"/>
</svg>
