<svg width="16" height="17" viewBox="0 0 16 17" fill="none" xmlns="http://www.w3.org/2000/svg">
<g clip-path="url(#clip0)">
<path d="M7.99974 0.405273C4.75203 0.405273 2.10951 3.04779 2.10951 6.29583C2.10951 7.14305 2.28292 7.95195 2.62465 8.70026C4.09737 11.9229 6.92099 15.3254 7.75151 16.2913C7.81373 16.3635 7.90444 16.4051 7.99991 16.4051C8.09537 16.4051 8.18608 16.3635 8.24831 16.2913C9.07849 15.3255 11.9021 11.9232 13.3753 8.70026C13.7172 7.95195 13.8905 7.14305 13.8905 6.29583C13.8901 3.04779 11.2476 0.405273 7.99974 0.405273ZM7.99974 9.3554C6.31268 9.3554 4.94001 7.98273 4.94001 6.29567C4.94001 4.60844 6.31268 3.23577 7.99974 3.23577C9.68681 3.23577 11.0595 4.60844 11.0595 6.29567C11.0596 7.98273 9.68697 9.3554 7.99974 9.3554Z" fill="#D8D8D8"/>
</g>
<defs>
<clipPath id="clip0">
<rect y="0.405273" width="16" height="16" fill="white"/>
</clipPath>
</defs>
</svg>
