<svg width="46" height="46" viewBox="0 0 46 46" fill="none" xmlns="http://www.w3.org/2000/svg" style="">
<path width="41.956" height="41.956" stroke="url(#paint0_linear)" stroke-width="4.04396" d="M2.02198 2.02198 L43.97798 2.02198 L43.97798 43.97798 L2.02198 43.97798 Z" class="nOjaqzBm_0"></path>
<path d="M7.58246 31.6876L11.3991 23.2508V11.3991H23.0417C23.4484 11.3991 23.8699 11.4293 24.2698 11.503C40.5276 14.5004 32.4886 34.0982 23.6526 34.0982H13.207L19.836 17.2245L25.8623 32.692L28.8754 30.6833L22.2465 13.0061H16.8228L7.58246 37.9148H23.6526C41.1289 36.5087 44.1421 8.78766 23.6526 7.5824H7.58246V31.6876Z" fill="url(#paint1_linear)" class="nOjaqzBm_1"></path>
<path d="M18.5881 26.6313C18.6569 26.4249 18.8501 26.2857 19.0677 26.2857H20.3609C20.5785 26.2857 20.7717 26.4249 20.8405 26.6313L21.5145 28.6533C21.6236 28.9807 21.38 29.3187 21.0349 29.3187H18.3937C18.0486 29.3187 17.805 28.9807 17.9141 28.6533L18.5881 26.6313Z" fill="url(#paint2_linear)" class="nOjaqzBm_2"></path>
<defs>
<linearGradient id="paint0_linear" x1="0" y1="23.2139" x2="46" y2="23.2139" gradientUnits="userSpaceOnUse">
<stop stop-color="#E0040B"></stop>
<stop offset="1" stop-color="#DD1E4B"></stop>
</linearGradient>
<linearGradient id="paint1_linear" x1="7.58246" y1="27.2683" x2="37.714" y2="27.4692" gradientUnits="userSpaceOnUse">
<stop stop-color="#E0040B"></stop>
<stop offset="1" stop-color="#EF0D33"></stop>
</linearGradient>
<linearGradient id="paint2_linear" x1="19.967" y1="26.2857" x2="19.967" y2="29.3187" gradientUnits="userSpaceOnUse">
<stop stop-color="#E0040B"></stop>
<stop offset="1" stop-color="#DD1E4B"></stop>
</linearGradient>
</defs>
<style data-made-with="vivus-instant">.nOjaqzBm_0{stroke-dasharray:168 170;stroke-dashoffset:169;animation:nOjaqzBm_draw_0 6100ms ease-in 0ms infinite,nOjaqzBm_fade 6100ms linear 0ms infinite;}.nOjaqzBm_1{stroke-dasharray:269 271;stroke-dashoffset:270;animation:nOjaqzBm_draw_1 6100ms ease-in 0ms infinite,nOjaqzBm_fade 6100ms linear 0ms infinite;}.nOjaqzBm_2{stroke-dasharray:12 14;stroke-dashoffset:13;animation:nOjaqzBm_draw_2 6100ms ease-in 0ms infinite,nOjaqzBm_fade 6100ms linear 0ms infinite;}@keyframes nOjaqzBm_draw{100%{stroke-dashoffset:0;}}@keyframes nOjaqzBm_fade{0%{stroke-opacity:1;}93.44262295081967%{stroke-opacity:1;}100%{stroke-opacity:0;}}@keyframes nOjaqzBm_draw_0{3.278688524590164%{stroke-dashoffset: 169}44.26229508196721%{ stroke-dashoffset: 0;}100%{ stroke-dashoffset: 0;}}@keyframes nOjaqzBm_draw_1{3.278688524590164%{stroke-dashoffset: 270}44.26229508196721%{ stroke-dashoffset: 0;}100%{ stroke-dashoffset: 0;}}@keyframes nOjaqzBm_draw_2{3.278688524590164%{stroke-dashoffset: 13}44.26229508196721%{ stroke-dashoffset: 0;}100%{ stroke-dashoffset: 0;}}</style></svg>
