<svg width="27" height="27" viewBox="0 0 27 27" fill="none" xmlns="http://www.w3.org/2000/svg">
<path d="M18.5625 0H8.4375C3.77831 0 0 3.77831 0 8.4375V18.5625C0 23.2217 3.77831 27 8.4375 27H18.5625C23.2217 27 27 23.2217 27 18.5625V8.4375C27 3.77831 23.2217 0 18.5625 0ZM24.4688 18.5625C24.4688 21.8194 21.8194 24.4688 18.5625 24.4688H8.4375C5.18062 24.4688 2.53125 21.8194 2.53125 18.5625V8.4375C2.53125 5.18062 5.18062 2.53125 8.4375 2.53125H18.5625C21.8194 2.53125 24.4688 5.18062 24.4688 8.4375V18.5625Z" fill="url(#paint0_linear)"/>
<path d="M13.5 6.75C9.77231 6.75 6.75 9.77231 6.75 13.5C6.75 17.2277 9.77231 20.25 13.5 20.25C17.2277 20.25 20.25 17.2277 20.25 13.5C20.25 9.77231 17.2277 6.75 13.5 6.75ZM13.5 17.7188C11.1746 17.7188 9.28125 15.8254 9.28125 13.5C9.28125 11.1729 11.1746 9.28125 13.5 9.28125C15.8254 9.28125 17.7188 11.1729 17.7188 13.5C17.7188 15.8254 15.8254 17.7188 13.5 17.7188Z" fill="url(#paint1_linear)"/>
<path d="M20.7562 7.14311C21.253 7.14311 21.6557 6.74042 21.6557 6.24367C21.6557 5.74693 21.253 5.34424 20.7562 5.34424C20.2595 5.34424 19.8568 5.74693 19.8568 6.24367C19.8568 6.74042 20.2595 7.14311 20.7562 7.14311Z" fill="url(#paint2_linear)"/>
<defs>
<linearGradient id="paint0_linear" x1="13.5" y1="0" x2="13.5" y2="27" gradientUnits="userSpaceOnUse">
<stop stop-color="#E0040B"/>
<stop offset="1" stop-color="#DD1E4B"/>
</linearGradient>
<linearGradient id="paint1_linear" x1="13.5" y1="6.75" x2="13.5" y2="20.25" gradientUnits="userSpaceOnUse">
<stop stop-color="#E0040B"/>
<stop offset="1" stop-color="#DD1E4B"/>
</linearGradient>
<linearGradient id="paint2_linear" x1="20.7562" y1="5.34424" x2="20.7562" y2="7.14311" gradientUnits="userSpaceOnUse">
<stop stop-color="#E0040B"/>
<stop offset="1" stop-color="#DD1E4B"/>
</linearGradient>
</defs>
</svg>
