<svg width="27" height="22" viewBox="0 0 27 22" fill="none" xmlns="http://www.w3.org/2000/svg">
<path d="M8.21033 16.6598C6.28976 16.6242 4.62987 15.5145 3.80986 13.9061C3.89556 13.9097 3.98184 13.9116 4.06871 13.9116C4.61764 13.9116 5.15245 13.8383 5.65996 13.6992L5.62621 12.7268C3.55785 12.3116 1.94632 10.6282 1.63756 8.52284C2.24396 8.75257 2.89724 8.88764 3.57753 8.90901L5.32241 8.96381L3.87111 7.99358C2.51871 7.08948 1.62903 5.54628 1.62903 3.79854C1.62903 3.13245 1.75827 2.49676 1.99273 1.91524C4.79719 5.04261 8.79539 7.07666 13.2721 7.30122L13.9354 7.33449L13.784 6.68782C13.6978 6.32005 13.653 5.93571 13.653 5.53938C13.653 2.75686 15.9099 0.5 18.6924 0.5C20.1432 0.5 21.4526 1.11153 22.3722 2.09095L22.5617 2.29274L22.8333 2.23928C23.6433 2.07981 24.4238 1.83651 25.1646 1.51864C24.7497 2.13586 24.2014 2.65643 23.5613 3.03997L23.8772 3.96539C24.4451 3.89796 25.0004 3.78996 25.5402 3.64403C25.0566 4.1673 24.5212 4.64226 23.9431 5.059L23.7237 5.21712L23.736 5.48724C23.7464 5.71672 23.7516 5.94837 23.7516 6.18094C23.7516 13.2867 18.346 21.4423 8.49063 21.4423C6.18346 21.4423 3.99797 20.9275 2.03889 20.0092C4.47228 19.8615 6.70457 18.9677 8.50946 17.5533L9.61626 16.6859L8.21033 16.6598Z" stroke="url(#paint0_linear)"/>
<defs>
<linearGradient id="paint0_linear" x1="13.5" y1="0" x2="13.5" y2="21.9423" gradientUnits="userSpaceOnUse">
<stop stop-color="#E0040B"/>
<stop offset="1" stop-color="#DD1E4B"/>
</linearGradient>
</defs>
</svg>
